<svg width="34" height="34" viewBox="0 0 34 34" fill="none" xmlns="http://www.w3.org/2000/svg">
<path d="M4.25142 18.904H1.41667C0.634263 18.904 0 19.5383 0 20.3207V30.2373C0 31.0197 0.634263 31.654 1.41667 31.654H4.25142C5.03382 31.654 5.66808 31.0197 5.66808 30.2373V20.3207C5.66808 19.5383 5.03382 18.904 4.25142 18.904Z" fill="#C8F4FC"/>
<path d="M33.7932 24.8668C33.2263 24.1322 32.4502 23.5865 31.5672 23.3015C30.6842 23.0165 29.7355 23.0056 28.8462 23.2702H28.8263L25.993 24.1768C25.8481 24.2231 25.7219 24.3147 25.6332 24.4382C25.5444 24.5617 25.4977 24.7104 25.5 24.8625C25.5075 25.2856 25.4307 25.706 25.2741 26.0991C25.1175 26.4922 24.8841 26.8501 24.5877 27.1521C24.2912 27.4541 23.9376 27.694 23.5475 27.8579C23.1574 28.0218 22.7385 28.1064 22.3153 28.1067H14.875C14.6871 28.1067 14.507 28.0321 14.3741 27.8992C14.2413 27.7664 14.1667 27.5862 14.1667 27.3983C14.1667 27.2105 14.2413 27.0303 14.3741 26.8975C14.507 26.7646 14.6871 26.69 14.875 26.69H22.3125C22.7822 26.69 23.2326 26.5034 23.5647 26.1713C23.8968 25.8392 24.0833 25.3888 24.0833 24.9192C24.0833 24.4495 23.8968 23.9991 23.5647 23.667C23.2326 23.3349 22.7822 23.1483 22.3125 23.1483L17.0921 23.1597C16.807 23.0015 16.5355 22.82 16.2803 22.6171C14.6919 21.2623 12.7083 20.4568 10.625 20.3207H7.79168C7.60382 20.3207 7.42365 20.3953 7.29081 20.5281C7.15797 20.661 7.08334 20.8412 7.08334 21.029V29.3873C7.08316 29.5354 7.12939 29.6798 7.21553 29.8003C7.30167 29.9207 7.4234 30.0112 7.56359 30.0588C8.56234 30.3974 9.46334 30.7105 10.2793 30.9938C13.9953 32.2844 16.0693 32.9899 17.9548 32.9899C20.2541 32.9899 22.2728 31.9388 26.6518 29.6112C28.4665 28.645 30.7247 27.4437 33.6076 26.0029C33.7078 25.9527 33.7946 25.8794 33.861 25.7891C33.9274 25.6987 33.9713 25.594 33.9893 25.4833C34.0073 25.3727 33.9988 25.2594 33.9644 25.1527C33.9301 25.046 33.8709 24.949 33.7918 24.8696L33.7932 24.8668Z" fill="#C8F4FC"/>
<path d="M22.6667 20.3207C23.6027 20.342 24.5333 20.1733 25.4023 19.8249C26.2714 19.4765 27.0607 18.9555 27.7228 18.2934C28.3848 17.6314 28.9058 16.842 29.2542 15.973C29.6026 15.104 29.7713 14.1734 29.75 13.2373C29.75 10.2241 26.0313 4.62825 23.8156 1.56116C23.6775 1.38944 23.5027 1.25088 23.304 1.15568C23.1053 1.06047 22.8877 1.01105 22.6674 1.01105C22.447 1.01105 22.2295 1.06047 22.0308 1.15568C21.8321 1.25088 21.6572 1.38944 21.5192 1.56116C19.3021 4.62825 15.5833 10.2241 15.5833 13.2373C15.562 14.1734 15.7307 15.104 16.0791 15.973C16.4275 16.842 16.9485 17.6314 17.6106 18.2934C18.2726 18.9555 19.062 19.4765 19.931 19.8249C20.8 20.1733 21.7306 20.342 22.6667 20.3207ZM18.7708 12.529C18.9587 12.529 19.1389 12.6036 19.2717 12.7365C19.4045 12.8693 19.4792 13.0495 19.4792 13.2373C19.4803 14.0824 19.8165 14.8925 20.414 15.49C21.0115 16.0875 21.8216 16.4237 22.6667 16.4248C22.8545 16.4248 23.0347 16.4995 23.1675 16.6323C23.3004 16.7651 23.375 16.9453 23.375 17.1332C23.375 17.321 23.3004 17.5012 23.1675 17.634C23.0347 17.7669 22.8545 17.8415 22.6667 17.8415C21.446 17.84 20.2758 17.3544 19.4127 16.4913C18.5496 15.6282 18.064 14.458 18.0625 13.2373C18.0625 13.0495 18.1371 12.8693 18.27 12.7365C18.4028 12.6036 18.583 12.529 18.7708 12.529Z" fill="#C8F4FC"/>
</svg>
