<svg width="27" height="41" viewBox="0 0 27 41" fill="none" xmlns="http://www.w3.org/2000/svg">
<path d="M25.3125 22.7812H24.8906C24.7787 22.7812 24.6714 22.7368 24.5923 22.6577C24.5132 22.5786 24.4688 22.4713 24.4688 22.3594V10.9688C24.4688 8.05966 23.3131 5.26971 21.2561 3.21267C19.199 1.15563 16.4091 0 13.5 0C10.5909 0 7.80096 1.15563 5.74392 3.21267C3.68688 5.26971 2.53125 8.05966 2.53125 10.9688V22.3594C2.53125 22.4713 2.4868 22.5786 2.40769 22.6577C2.32857 22.7368 2.22126 22.7812 2.10938 22.7812H1.6875C1.23995 22.7812 0.810725 22.959 0.494258 23.2755C0.17779 23.592 0 24.0212 0 24.4688C0 24.9163 0.17779 25.3455 0.494258 25.662C0.810725 25.9785 1.23995 26.1562 1.6875 26.1562H6.32812C6.44001 26.1562 6.54732 26.2007 6.62644 26.2798C6.70555 26.3589 6.75 26.4662 6.75 26.5781V38.8125C6.75 39.2601 6.92779 39.6893 7.24426 40.0057C7.56073 40.3222 7.98995 40.5 8.4375 40.5C8.88505 40.5 9.31427 40.3222 9.63074 40.0057C9.94721 39.6893 10.125 39.2601 10.125 38.8125V26.5781C10.125 26.4662 10.1694 26.3589 10.2486 26.2798C10.3277 26.2007 10.435 26.1562 10.5469 26.1562H16.4531C16.565 26.1562 16.6723 26.2007 16.7514 26.2798C16.8306 26.3589 16.875 26.4662 16.875 26.5781V38.8125C16.875 39.2601 17.0528 39.6893 17.3693 40.0057C17.6857 40.3222 18.1149 40.5 18.5625 40.5C19.0101 40.5 19.4393 40.3222 19.7557 40.0057C20.0722 39.6893 20.25 39.2601 20.25 38.8125V26.5781C20.25 26.4662 20.2944 26.3589 20.3736 26.2798C20.4527 26.2007 20.56 26.1562 20.6719 26.1562H25.3125C25.7601 26.1562 26.1893 25.9785 26.5057 25.662C26.8222 25.3455 27 24.9163 27 24.4688C27 24.0212 26.8222 23.592 26.5057 23.2755C26.1893 22.959 25.7601 22.7812 25.3125 22.7812ZM9.23063 12.7086C9.10969 12.5919 9.01321 12.4523 8.94681 12.2979C8.8804 12.1435 8.84541 11.9774 8.84387 11.8094C8.84233 11.6413 8.87428 11.4747 8.93784 11.3191C9.00141 11.1635 9.09532 11.0222 9.21409 10.9033C9.33287 10.7844 9.47413 10.6904 9.62964 10.6267C9.78515 10.5629 9.95179 10.5308 10.1198 10.5322C10.2879 10.5336 10.454 10.5684 10.6084 10.6347C10.7629 10.7009 10.9026 10.7973 11.0194 10.9181L13.2013 13.1001C13.2405 13.1393 13.2871 13.1705 13.3383 13.1918C13.3896 13.2131 13.4445 13.224 13.5 13.224C13.5555 13.224 13.6104 13.2131 13.6617 13.1918C13.7129 13.1705 13.7595 13.1393 13.7987 13.1001L15.9806 10.9181C16.2194 10.6877 16.5392 10.5603 16.871 10.5633C17.2029 10.5663 17.5203 10.6996 17.7548 10.9344C17.9893 11.1691 18.1223 11.4866 18.125 11.8185C18.1278 12.1503 18 12.47 17.7694 12.7086L14.8888 15.5891C14.8496 15.6283 14.8185 15.6749 14.7974 15.7262C14.7762 15.7774 14.7654 15.8324 14.7656 15.8878V22.3611C14.7656 22.473 14.7212 22.5803 14.6421 22.6594C14.5629 22.7385 14.4556 22.7829 14.3438 22.7829H12.6562C12.5444 22.7829 12.4371 22.7385 12.3579 22.6594C12.2788 22.5803 12.2344 22.473 12.2344 22.3611V15.8878C12.2346 15.8324 12.2238 15.7774 12.2026 15.7262C12.1815 15.6749 12.1504 15.6283 12.1112 15.5891L9.23063 12.7086Z" fill="#C8F4FC"/>
</svg>
