<svg width="40" height="40" viewBox="0 0 40 40" fill="none" xmlns="http://www.w3.org/2000/svg">
<path d="M37.3689 16.2697L35.2588 15.5213C34.9568 15.4137 34.6808 15.2439 34.4485 15.0229C34.2162 14.8019 34.0329 14.5346 33.9104 14.2384C33.7879 13.9421 33.7289 13.6234 33.7372 13.3029C33.7455 12.9824 33.821 12.6672 33.9588 12.3777L34.9188 10.3559C35.269 9.61758 35.3822 8.789 35.243 7.98378C35.1037 7.17857 34.7188 6.43615 34.141 5.85832C33.5632 5.2805 32.8208 4.89556 32.0156 4.7563C31.2105 4.61704 30.3819 4.73028 29.6436 5.08048L27.6219 6.04056C27.3324 6.17826 27.0173 6.25365 26.6968 6.26186C26.3764 6.27007 26.0578 6.21091 25.7616 6.0882C25.4655 5.96549 25.1984 5.78198 24.9776 5.54953C24.7569 5.31708 24.5874 5.04088 24.4801 4.73879L23.7301 2.63028C23.4557 1.86057 22.9499 1.1946 22.2821 0.723694C21.6143 0.252786 20.8171 0 20 0C19.1829 0 18.3857 0.252786 17.7179 0.723694C17.0501 1.1946 16.5443 1.86057 16.2699 2.63028L15.5199 4.74045C15.4124 5.0424 15.2428 5.31843 15.022 5.5507C14.8012 5.78297 14.5341 5.9663 14.2379 6.08884C13.9418 6.21138 13.6233 6.2704 13.3029 6.26208C12.9825 6.25377 12.6675 6.1783 12.3781 6.04056L10.3564 5.08048C9.61807 4.73028 8.78953 4.61704 7.98436 4.7563C7.17918 4.89556 6.4368 5.2805 5.859 5.85832C5.2812 6.43615 4.89629 7.17857 4.75703 7.98378C4.61778 8.789 4.73101 9.61758 5.0812 10.3559L6.04123 12.3777C6.17871 12.6673 6.25398 12.9824 6.26218 13.3028C6.27038 13.6233 6.21133 13.9419 6.08883 14.2381C5.96634 14.5343 5.78312 14.8015 5.551 15.0225C5.31888 15.2435 5.04301 15.4135 4.74118 15.5213L2.63112 16.2714C1.86126 16.5454 1.19507 17.051 0.723987 17.7187C0.252899 18.3865 0 19.1836 0 20.0008C0 20.818 0.252899 21.6152 0.723987 22.283C1.19507 22.9507 1.86126 23.4563 2.63112 23.7303L4.74118 24.4804C5.04311 24.5878 5.31913 24.7574 5.55139 24.9783C5.78365 25.1991 5.96697 25.4662 6.0895 25.7624C6.21204 26.0585 6.27106 26.3771 6.26274 26.6974C6.25442 27.0178 6.17896 27.3329 6.04123 27.6223L5.0812 29.6441C4.73101 30.3824 4.61778 31.211 4.75703 32.0162C4.89629 32.8214 5.2812 33.5639 5.859 34.1417C6.4368 34.7195 7.17918 35.1044 7.98436 35.2437C8.78953 35.383 9.61807 35.2697 10.3564 34.9195L12.3781 33.9594C12.6675 33.8215 12.9827 33.7459 13.3032 33.7375C13.6238 33.7292 13.9425 33.7883 14.2387 33.911C14.5349 34.0338 14.802 34.2174 15.0227 34.45C15.2434 34.6826 15.4128 34.959 15.5199 35.2612L16.2699 37.3697C16.5443 38.1394 17.0501 38.8054 17.7179 39.2763C18.3857 39.7472 19.1829 40 20 40C20.8171 40 21.6143 39.7472 22.2821 39.2763C22.9499 38.8054 23.4557 38.1394 23.7301 37.3697L24.4801 35.2596C24.5876 34.9576 24.7572 34.6816 24.978 34.4493C25.1988 34.217 25.4659 34.0337 25.7621 33.9112C26.0582 33.7886 26.3767 33.7296 26.6971 33.7379C27.0175 33.7462 27.3325 33.8217 27.6219 33.9594L29.6436 34.9195C30.3819 35.2697 31.2105 35.383 32.0156 35.2437C32.8208 35.1044 33.5632 34.7195 34.141 34.1417C34.7188 33.5639 35.1037 32.8214 35.243 32.0162C35.3822 31.211 35.269 30.3824 34.9188 29.6441L33.9588 27.6223C33.821 27.3329 33.7456 27.0178 33.7373 26.6974C33.7289 26.3771 33.788 26.0585 33.9105 25.7624C34.033 25.4662 34.2164 25.1991 34.4486 24.9783C34.6809 24.7574 34.9569 24.5878 35.2588 24.4804L37.3689 23.7286C38.1387 23.4546 38.8049 22.949 39.276 22.2813C39.7471 21.6136 40 20.8164 40 19.9992C40 19.182 39.7471 18.3848 39.276 17.717C38.8049 17.0493 38.1387 16.5437 37.3689 16.2697ZM23.4618 24.6487C22.825 25.2512 22.051 25.6895 21.2068 25.9256C20.3626 26.1617 19.4735 26.1886 18.6166 26.0038C18.2031 25.8709 17.8181 25.6617 17.4816 25.3871C17.314 25.2521 17.2052 25.0575 17.1779 24.8441C17.1505 24.6306 17.2068 24.4149 17.3349 24.242C18.5031 22.457 20.1442 21.0317 22.0751 20.125C22.2833 20.0505 22.4534 19.8964 22.5479 19.6965C22.6425 19.4966 22.6537 19.2673 22.5792 19.0591C22.5048 18.8509 22.3506 18.6808 22.1507 18.5862C21.9508 18.4917 21.7216 18.4804 21.5134 18.5549C18.0133 19.795 14.7965 24.4687 13.2615 27.839C13.2171 27.9391 13.1535 28.0295 13.0742 28.1051C12.995 28.1806 12.9016 28.2398 12.7995 28.2793C12.6973 28.3188 12.5884 28.3377 12.4789 28.3351C12.3694 28.3325 12.2616 28.3083 12.1614 28.264C12.0613 28.2197 11.9709 28.1561 11.8953 28.0768C11.8198 27.9975 11.7606 27.9041 11.7211 27.802C11.6816 27.6998 11.6627 27.5909 11.6653 27.4814C11.6679 27.3719 11.6921 27.264 11.7364 27.1639C12.5455 25.4243 13.5271 23.7703 14.6665 22.2268C14.7655 22.0934 14.8224 21.9334 14.8299 21.7674C14.8373 21.6013 14.7949 21.4369 14.7082 21.2951C14.2474 20.5926 14.0453 19.7517 14.1365 18.9166C14.2772 18.1808 14.5968 17.4909 15.0671 16.9078C15.5374 16.3247 16.1439 15.8663 16.8332 15.573C18.0678 15.0058 19.3924 14.6599 20.7467 14.5512C22.296 14.4396 23.8033 13.9968 25.1668 13.2528C25.2744 13.1902 25.3945 13.1524 25.5186 13.1423C25.6426 13.1323 25.7673 13.1501 25.8835 13.1945C26.001 13.2387 26.107 13.3088 26.1936 13.3998C26.2802 13.4907 26.3451 13.6 26.3835 13.7195C26.8171 15.6417 26.7777 17.6404 26.2688 19.544C25.7599 21.4476 24.7966 23.1993 23.4618 24.6487Z" fill="#CFF9AF"/>
</svg>
