<svg width="36" height="36" viewBox="0 0 36 36" fill="none" xmlns="http://www.w3.org/2000/svg">
<g clip-path="url(#clip0)">
<path d="M20.8125 32.25H15.1875C15.0596 32.25 14.9338 32.2827 14.8221 32.345C14.7104 32.4073 14.6165 32.4972 14.5493 32.606C14.4821 32.7148 14.4439 32.839 14.4382 32.9668C14.4326 33.0946 14.4597 33.2217 14.517 33.336L15.021 34.3425C15.2684 34.8412 15.6504 35.2608 16.1239 35.5537C16.5973 35.8466 17.1433 36.0012 17.7 36H18.3C18.8561 36.002 19.4018 35.8486 19.8754 35.557C20.349 35.2655 20.7317 34.8474 20.9805 34.35L21.4845 33.3435C21.5418 33.229 21.5689 33.1018 21.5632 32.9739C21.5575 32.846 21.5191 32.7217 21.4517 32.6129C21.3844 32.504 21.2902 32.4142 21.1784 32.352C21.0665 32.2898 20.9405 32.2572 20.8125 32.2575V32.25Z" fill="#C8F4FC"/>
<path d="M18 6.75C18.3978 6.75 18.7794 6.59196 19.0607 6.31066C19.342 6.02936 19.5 5.64782 19.5 5.25V1.5C19.5 1.10218 19.342 0.720644 19.0607 0.43934C18.7794 0.158035 18.3978 0 18 0C17.6022 0 17.2206 0.158035 16.9393 0.43934C16.658 0.720644 16.5 1.10218 16.5 1.5V5.25C16.5 5.64782 16.658 6.02936 16.9393 6.31066C17.2206 6.59196 17.6022 6.75 18 6.75Z" fill="#C8F4FC"/>
<path d="M31.788 5.71201C31.5067 5.4308 31.1252 5.27283 30.7275 5.27283C30.3297 5.27283 29.9483 5.4308 29.667 5.71201L27.0165 8.36401C26.8732 8.50238 26.7589 8.66789 26.6803 8.8509C26.6017 9.03391 26.5603 9.23074 26.5586 9.4299C26.5569 9.62907 26.5948 9.82659 26.6702 10.0109C26.7457 10.1953 26.857 10.3628 26.9979 10.5036C27.1387 10.6444 27.3062 10.7558 27.4905 10.8312C27.6749 10.9067 27.8724 10.9446 28.0716 10.9429C28.2707 10.9412 28.4676 10.8998 28.6506 10.8212C28.8336 10.7425 28.9991 10.6283 29.1375 10.485L31.788 7.83301C32.0692 7.55172 32.2271 7.17025 32.2271 6.77251C32.2271 6.37476 32.0692 5.9933 31.788 5.71201Z" fill="#C8F4FC"/>
<path d="M34.5 18H31.5C31.1022 18 30.7206 18.158 30.4393 18.4393C30.158 18.7206 30 19.1022 30 19.5C30 19.8978 30.158 20.2794 30.4393 20.5607C30.7206 20.842 31.1022 21 31.5 21H34.5C34.8978 21 35.2794 20.842 35.5607 20.5607C35.842 20.2794 36 19.8978 36 19.5C36 19.1022 35.842 18.7206 35.5607 18.4393C35.2794 18.158 34.8978 18 34.5 18Z" fill="#C8F4FC"/>
<path d="M8.98502 8.36399L6.33302 5.71199C6.05012 5.43875 5.67122 5.28756 5.27792 5.29098C4.88463 5.2944 4.50841 5.45215 4.23029 5.73026C3.95218 6.00838 3.79443 6.3846 3.79101 6.77789C3.78759 7.17119 3.93879 7.55009 4.21202 7.83299L6.86402 10.485C7.14693 10.7582 7.52583 10.9094 7.91913 10.906C8.31242 10.9026 8.68864 10.7448 8.96675 10.4667C9.24486 10.1886 9.40262 9.81239 9.40603 9.41909C9.40945 9.0258 9.25826 8.6469 8.98502 8.36399Z" fill="#C8F4FC"/>
<path d="M4.5 18H1.5C1.10218 18 0.720644 18.158 0.43934 18.4393C0.158035 18.7206 0 19.1022 0 19.5C0 19.8978 0.158035 20.2794 0.43934 20.5607C0.720644 20.842 1.10218 21 1.5 21H4.5C4.89782 21 5.27936 20.842 5.56066 20.5607C5.84196 20.2794 6 19.8978 6 19.5C6 19.1022 5.84196 18.7206 5.56066 18.4393C5.27936 18.158 4.89782 18 4.5 18Z" fill="#C8F4FC"/>
<path d="M18 9C15.9271 9.00308 13.9092 9.66671 12.2391 10.8946C10.569 12.1224 9.33375 13.8506 8.71256 15.8282C8.09138 17.8058 8.11663 19.9299 8.78465 21.8921C9.45268 23.8544 10.7287 25.5527 12.4275 26.7405C12.5271 26.8096 12.6084 26.9017 12.6646 27.0091C12.7207 27.1165 12.75 27.2358 12.75 27.357V28.5C12.75 28.8978 12.908 29.2794 13.1893 29.5607C13.4706 29.842 13.8522 30 14.25 30H21.75C22.1478 30 22.5294 29.842 22.8107 29.5607C23.092 29.2794 23.25 28.8978 23.25 28.5V27.3555C23.25 27.2343 23.2793 27.115 23.3354 27.0076C23.3916 26.9002 23.4729 26.8081 23.5725 26.739C25.2756 25.5537 26.5557 23.8557 27.2266 21.8922C27.8974 19.9286 27.9238 17.8022 27.3019 15.8227C26.68 13.8431 25.4424 12.1138 23.7693 10.8866C22.0962 9.65943 20.0749 8.99846 18 9Z" fill="#C8F4FC"/>
</g>
<defs>
<clipPath id="clip0">
<rect width="36" height="36" fill="white"/>
</clipPath>
</defs>
</svg>
