<svg width="39" height="38" viewBox="0 0 39 38" fill="none" xmlns="http://www.w3.org/2000/svg">
<path d="M15.8333 25.3335H10.3264C10.2529 25.3335 10.1808 25.3131 10.1183 25.2744C10.0558 25.2358 10.0052 25.1805 9.97237 25.1147C9.9395 25.049 9.92558 24.9754 9.93218 24.9022C9.93878 24.8289 9.96564 24.759 10.0097 24.7002C10.3628 24.2379 10.7571 23.7502 11.1988 23.2356C11.2731 23.1492 11.3652 23.0799 11.4688 23.0323C11.5724 22.9848 11.685 22.9601 11.7989 22.9601H14.2499C14.3932 22.96 14.5337 22.9211 14.6565 22.8475C14.7793 22.7739 14.8799 22.6684 14.9475 22.5421C15.0151 22.4159 15.0472 22.2736 15.0403 22.1306C15.0335 21.9876 14.988 21.8491 14.9086 21.7298L10.1586 14.6048C10.0865 14.496 9.9887 14.4066 9.87378 14.3447C9.75886 14.2829 9.63043 14.2504 9.49991 14.2501H0.791505C0.634856 14.2502 0.481738 14.2967 0.351531 14.3838C0.221323 14.4708 0.11988 14.5946 0.0600394 14.7394C0.000199284 14.8841 -0.0153474 15.0434 0.0153671 15.197C0.0460817 15.3506 0.121677 15.4917 0.232584 15.6023L1.51351 16.8832C1.64386 17.014 1.72438 17.1863 1.74115 17.3702C1.75792 17.5541 1.70988 17.738 1.60535 17.8902C1.06379 18.6831 0.779627 19.6235 0.791505 20.5835C0.791505 23.5649 5.92313 32.5837 6.43614 33.1331C6.8091 33.605 7.2719 33.9982 7.79778 34.2901C8.32366 34.582 8.90219 34.7667 9.49991 34.8336H15.8333C16.6732 34.8336 17.4786 34.5 18.0725 33.9061C18.6664 33.3123 19 32.5068 19 31.6669V28.5002C19 27.6604 18.6664 26.8549 18.0725 26.261C17.4786 25.6672 16.6732 25.3335 15.8333 25.3335ZM16.625 31.6669C16.625 31.8769 16.5416 32.0783 16.3931 32.2267C16.2446 32.3752 16.0433 32.4586 15.8333 32.4586H8.18415C7.79465 32.4586 7.63631 32.077 7.41623 31.7287C7.25067 31.1376 7.2053 30.5193 7.28281 29.9104C7.36032 29.3015 7.55912 28.7143 7.86748 28.1836C7.92907 28.0424 8.03047 27.9224 8.15927 27.838C8.28807 27.7536 8.43868 27.7086 8.59265 27.7086H15.8333C16.0433 27.7086 16.2446 27.792 16.3931 27.9404C16.5416 28.0889 16.625 28.2903 16.625 28.5002V31.6669Z" fill="#CFF9AF"/>
<path d="M37.5252 18.9637L33.8835 13.6944C33.6469 13.3523 33.3453 13.0601 32.9958 12.8347C32.6463 12.6092 32.2558 12.4547 31.8466 12.3802C31.4374 12.3056 31.0175 12.3124 30.611 12.4002C30.2044 12.4879 29.8191 12.6549 29.4771 12.8916L26.627 14.866C26.285 15.1026 25.9928 15.4043 25.7673 15.7538C25.5419 16.1033 25.3874 16.4938 25.3129 16.903C25.2383 17.3122 25.2451 17.732 25.3329 18.1386C25.4206 18.5452 25.5876 18.9305 25.8243 19.2725L28.6537 23.3607C28.6963 23.422 28.7207 23.4941 28.7241 23.5687C28.7274 23.6433 28.7096 23.7173 28.6727 23.7822C28.6358 23.8471 28.5812 23.9003 28.5154 23.9355C28.4496 23.9707 28.3751 23.9866 28.3006 23.9814C28.0853 23.9655 27.8652 23.9465 27.6388 23.9244C27.4423 23.9054 27.2599 23.8137 27.1275 23.6672C26.9951 23.5208 26.9222 23.3301 26.9231 23.1327V22.1668C26.923 21.997 26.8682 21.8317 26.7669 21.6953C26.6657 21.559 26.5232 21.4588 26.3606 21.4097C26.198 21.3605 26.0239 21.3649 25.8641 21.4223C25.7042 21.4797 25.567 21.5869 25.4728 21.7283L20.7227 28.8533C20.642 28.9749 20.5965 29.1165 20.5912 29.2623C20.5859 29.4082 20.621 29.5527 20.6927 29.6798L25.1482 37.5965C25.2315 37.7443 25.36 37.8614 25.5149 37.9306C25.6697 37.9998 25.8427 38.0174 26.0084 37.9809C26.174 37.9444 26.3235 37.8556 26.4349 37.7277C26.5463 37.5998 26.6136 37.4395 26.627 37.2704L26.7632 35.5524C26.7818 35.3451 26.8812 35.1534 27.0401 35.0189C27.1989 34.8844 27.4043 34.8178 27.6119 34.8336C28.5001 34.911 29.3867 34.6672 30.1104 34.1464C32.0183 32.8275 37.6297 22.4756 37.7295 22.1858C37.9432 21.6687 38.0359 21.1096 38.0005 20.5511C37.9651 19.9927 37.8025 19.4497 37.5252 18.9637ZM35.983 22.094C35.0563 23.0995 33.7863 23.7209 32.4237 23.8357C32.274 23.8626 32.1198 23.8459 31.9794 23.7875C31.839 23.7291 31.7184 23.6315 31.632 23.5063L27.7655 17.9156C27.7053 17.8298 27.6627 17.7329 27.6402 17.6306C27.6177 17.5283 27.6158 17.4225 27.6345 17.3194C27.6532 17.2163 27.6922 17.1179 27.7492 17.03C27.8062 16.9421 27.8801 16.8664 27.9666 16.8072L30.8166 14.8328C30.9022 14.7725 30.999 14.7298 31.1013 14.7072C31.2036 14.6846 31.3093 14.6825 31.4124 14.7011C31.5155 14.7196 31.6139 14.7585 31.7019 14.8153C31.7898 14.8722 31.8657 14.9459 31.9249 15.0323L35.9925 20.9144C36.1134 21.088 36.1769 21.295 36.1744 21.5065C36.1718 21.718 36.1033 21.9234 35.9783 22.094H35.983Z" fill="#CFF9AF"/>
<path d="M8.54994 11.9764L11.8037 13.5123C12.5632 13.8706 13.4339 13.9126 14.2243 13.629C15.0147 13.3455 15.6601 12.7596 16.0186 12.0002L17.9756 7.85181C18.0072 7.78538 18.0567 7.72903 18.1185 7.68906C18.1803 7.64908 18.252 7.62704 18.3255 7.6254C18.3991 7.6237 18.4716 7.64269 18.5348 7.6802C18.5981 7.71771 18.6496 7.77224 18.6834 7.83756C18.886 8.22601 19.0897 8.63874 19.2945 9.07574C19.366 9.22914 19.3864 9.40139 19.3527 9.56724C19.3191 9.73308 19.2332 9.88378 19.1077 9.99725L17.6827 11.2893C17.5649 11.3963 17.4821 11.5365 17.4451 11.6913C17.4081 11.8462 17.4187 12.0086 17.4755 12.1574C17.5323 12.3061 17.6326 12.4343 17.7633 12.5252C17.894 12.6161 18.0491 12.6654 18.2084 12.6668H26.9168C27.0595 12.6669 27.1996 12.6283 27.3222 12.5553C27.4449 12.4823 27.5455 12.3775 27.6134 12.2519L32.3635 3.47228C32.4401 3.33074 32.4717 3.16923 32.4542 3.00925C32.4367 2.84928 32.3708 2.69844 32.2654 2.57685C32.1599 2.45526 32.02 2.36869 31.8641 2.32867C31.7082 2.28865 31.5438 2.29708 31.3929 2.35285L29.6955 2.98619C29.5191 3.05098 29.3253 3.05087 29.149 2.98589C28.9726 2.92091 28.8251 2.7953 28.7329 2.63152C28.276 1.82061 27.5728 1.17621 26.7252 0.791673C26.1108 0.508254 24.6431 0.110834 19 0H12.6492C12.0555 0.0557331 11.4848 0.257155 10.9876 0.586391C10.4904 0.915628 10.0822 1.3625 9.7992 1.88735L7.03309 7.7584C6.85534 8.13489 6.75357 8.54274 6.73362 8.9586C6.71367 9.37447 6.77591 9.79019 6.9168 10.182C7.05769 10.5738 7.27445 10.9339 7.55469 11.2418C7.83492 11.5497 8.17312 11.7994 8.54994 11.9764ZM9.18328 8.77649L12.2629 2.2531C12.3549 2.06121 12.512 1.90817 12.7063 1.8212C12.9005 1.73422 13.1193 1.71895 13.3237 1.7781C14.5834 2.37193 15.6727 3.27439 16.4904 4.4017C16.5837 4.5174 16.6425 4.65702 16.6602 4.80459C16.6778 4.95215 16.6535 5.1017 16.5902 5.23613L13.8652 10.9868C13.8213 11.081 13.7591 11.1655 13.6821 11.2354C13.6052 11.3053 13.5151 11.3591 13.4171 11.3938C13.2197 11.4648 13.0022 11.4545 12.8123 11.3653L9.55853 9.831C9.36897 9.74088 9.22296 9.57917 9.15259 9.38143C9.08223 9.18369 9.09326 8.9661 9.18328 8.77649Z" fill="#CFF9AF"/>
</svg>
