<svg width="37" height="37" viewBox="0 0 37 37" fill="none" xmlns="http://www.w3.org/2000/svg">
<g clip-path="url(#clip0)">
<path d="M24.9257 3.08333C25.7771 3.08333 26.4673 2.39311 26.4673 1.54167C26.4673 0.690228 25.7771 0 24.9257 0C24.0742 0 23.384 0.690228 23.384 1.54167C23.384 2.39311 24.0742 3.08333 24.9257 3.08333Z" fill="#FFE153"/>
<path d="M21.8423 6.55208C22.6938 6.55208 23.384 5.86186 23.384 5.01042C23.384 4.15898 22.6938 3.46875 21.8423 3.46875C20.9909 3.46875 20.3007 4.15898 20.3007 5.01042C20.3007 5.86186 20.9909 6.55208 21.8423 6.55208Z" fill="#FFE153"/>
<path d="M31.265 8.47917C31.0507 8.2359 30.7869 8.04127 30.4912 7.90833C30.1955 7.77538 29.8748 7.70719 29.5507 7.70833H18.0005C17.8087 7.7093 17.6235 7.63875 17.481 7.51047C17.3384 7.38219 17.2488 7.20538 17.2297 7.01458L17.0755 5.42358C16.9384 3.93763 16.2499 2.55683 15.1457 1.55305C14.0415 0.54927 12.6015 -0.00477263 11.1092 6.25732e-08H6.67695C6.26808 6.25732e-08 5.87595 0.162425 5.58683 0.451544C5.29771 0.740662 5.13528 1.13279 5.13528 1.54167C5.13528 1.95054 5.29771 2.34267 5.58683 2.63179C5.87595 2.92091 6.26808 3.08333 6.67695 3.08333H11.1092C11.8343 3.08142 12.5338 3.35091 13.0702 3.83878C13.6066 4.32666 13.941 4.99759 14.0076 5.71958L14.1201 6.86196C14.1307 6.96935 14.1186 7.07777 14.0846 7.18019C14.0507 7.28261 13.9956 7.37676 13.9229 7.45654C13.8502 7.53633 13.7616 7.59996 13.6628 7.64334C13.564 7.68671 13.4572 7.70885 13.3493 7.70833H11.0507C10.7264 7.70699 10.4057 7.77509 10.11 7.90805C9.81429 8.04101 9.55049 8.23575 9.33633 8.47917C9.11635 8.72395 8.95037 9.0123 8.84917 9.32546C8.74797 9.63862 8.71382 9.96957 8.74895 10.2968C9.64774 17.851 8.86149 11.191 11.6627 34.9635C11.73 35.5233 11.9995 36.0392 12.4205 36.4143C12.8416 36.7893 13.3851 36.9976 13.949 37H26.6523C27.2167 36.9975 27.7606 36.7888 28.1817 36.4131C28.6028 36.0375 28.872 35.5208 28.9386 34.9604C31.7136 11.3729 30.9428 17.9527 31.8524 10.2937C31.8524 10.269 31.8524 10.2444 31.8524 10.2182C31.8783 9.90356 31.8396 9.58697 31.7386 9.28789C31.6376 8.98882 31.4764 8.71359 31.265 8.47917ZM14.5379 13.6222C14.4655 13.7019 14.3772 13.7656 14.2787 13.8092C14.1802 13.8527 14.0737 13.8752 13.966 13.875H12.9639C12.7745 13.8764 12.5912 13.808 12.4491 13.6829C12.3069 13.5578 12.2158 13.3847 12.193 13.1967L12.008 11.655C11.9949 11.5462 12.0051 11.4358 12.038 11.3312C12.0709 11.2266 12.1257 11.1302 12.1988 11.0485C12.2719 10.9668 12.3616 10.9016 12.4619 10.8573C12.5622 10.813 12.6708 10.7907 12.7804 10.7917H13.8133C14.0053 10.7907 14.1908 10.8615 14.3333 10.9901C14.4759 11.1187 14.5653 11.2959 14.5842 11.487L14.7383 13.0286C14.7483 13.1361 14.7357 13.2444 14.7011 13.3467C14.6666 13.4489 14.611 13.5428 14.5379 13.6222ZM17.9882 23.5104C17.6832 23.5104 17.3852 23.42 17.1317 23.2506C16.8781 23.0812 16.6805 22.8404 16.5638 22.5587C16.4472 22.277 16.4166 21.967 16.4761 21.668C16.5356 21.3689 16.6824 21.0942 16.898 20.8786C17.1136 20.663 17.3883 20.5162 17.6874 20.4567C17.9864 20.3972 18.2964 20.4278 18.5781 20.5444C18.8598 20.6611 19.1006 20.8587 19.27 21.1122C19.4394 21.3658 19.5298 21.6638 19.5298 21.9688C19.5298 22.3776 19.3674 22.7698 19.0783 23.0589C18.7892 23.348 18.397 23.5104 17.9882 23.5104ZM21.0715 31.2188C20.7666 31.2188 20.4685 31.1283 20.215 30.9589C19.9615 30.7895 19.7639 30.5488 19.6472 30.2671C19.5305 29.9853 19.5 29.6754 19.5594 29.3763C19.6189 29.0773 19.7658 28.8026 19.9814 28.587C20.197 28.3714 20.4717 28.2245 20.7707 28.165C21.0698 28.1056 21.3798 28.1361 21.6615 28.2528C21.9432 28.3695 22.1839 28.5671 22.3533 28.8206C22.5227 29.0741 22.6132 29.3722 22.6132 29.6771C22.6132 30.086 22.4507 30.4781 22.1616 30.7672C21.8725 31.0563 21.4804 31.2188 21.0715 31.2188ZM24.9257 20.4271C24.6207 20.4271 24.3227 20.3367 24.0692 20.1673C23.8156 19.9979 23.618 19.7571 23.5013 19.4754C23.3847 19.1937 23.3541 18.8837 23.4136 18.5847C23.4731 18.2856 23.6199 18.0109 23.8355 17.7953C24.0511 17.5797 24.3258 17.4329 24.6249 17.3734C24.9239 17.3139 25.2339 17.3444 25.5156 17.4611C25.7973 17.5778 26.0381 17.7754 26.2075 18.0289C26.3769 18.2824 26.4673 18.5805 26.4673 18.8854C26.4673 19.2943 26.3049 19.6864 26.0158 19.9755C25.7267 20.2647 25.3345 20.4271 24.9257 20.4271ZM28.4006 13.1951C28.3782 13.3834 28.2872 13.5569 28.145 13.6823C28.0028 13.8077 27.8194 13.8763 27.6297 13.875H18.6141C18.4223 13.876 18.2371 13.8054 18.0946 13.6771C17.952 13.5489 17.8624 13.3721 17.8432 13.1813L17.6891 11.6396C17.6783 11.5321 17.6902 11.4235 17.7241 11.3209C17.7579 11.2183 17.813 11.1239 17.8857 11.044C17.9584 10.964 18.047 10.9002 18.146 10.8568C18.2449 10.8133 18.3519 10.7911 18.4599 10.7917H27.8178C27.9272 10.7909 28.0354 10.8134 28.1354 10.8577C28.2354 10.902 28.3248 10.9671 28.3978 11.0486C28.4707 11.1301 28.5254 11.2262 28.5583 11.3305C28.5912 11.4348 28.6016 11.5449 28.5887 11.6535L28.4006 13.1951Z" fill="#FFE153"/>
</g>
<defs>
<clipPath id="clip0">
<rect width="37" height="37" fill="white"/>
</clipPath>
</defs>
</svg>
