<svg width="45" height="45" viewBox="0 0 45 45" fill="none" xmlns="http://www.w3.org/2000/svg">
<g clip-path="url(#clip0)">
<path d="M10.1381 22.2881C10.0166 22.0684 9.83839 21.8852 9.62209 21.7576C9.40579 21.6299 9.15926 21.5626 8.90812 21.5625H8.09062C7.95655 21.5636 7.82379 21.536 7.7013 21.4815C7.57882 21.4269 7.46945 21.3467 7.3806 21.2463C7.29174 21.1459 7.22545 21.0276 7.18621 20.8994C7.14697 20.7712 7.13569 20.6361 7.15312 20.5031C7.54426 17.4846 8.8172 14.6486 10.8126 12.3502C12.8079 10.0518 15.437 8.39306 18.3706 7.5818C21.3042 6.77053 24.412 6.84275 27.3047 7.78941C30.1975 8.73607 32.7467 10.5151 34.6331 12.9037C34.945 13.2835 35.3935 13.5257 35.8821 13.5782C36.3708 13.6306 36.8605 13.4891 37.2458 13.1841C37.6312 12.8791 37.8814 12.435 37.9426 11.9474C38.0038 11.4598 37.8711 10.9676 37.5731 10.5769C35.1923 7.56622 31.9645 5.33742 28.3057 4.17761C24.6468 3.01781 20.7245 2.98013 17.0441 4.06944C13.3636 5.15875 10.0936 7.32514 7.65542 10.2895C5.21721 13.2539 3.72246 16.8804 3.36375 20.7019C3.34219 20.9353 3.23397 21.1521 3.06044 21.3097C2.88691 21.4673 2.66064 21.5541 2.42625 21.5531H1.40625C1.15537 21.5532 0.909085 21.6204 0.692937 21.7478C0.47679 21.8752 0.298649 22.058 0.17699 22.2774C0.0553312 22.4968 -0.00541661 22.7448 0.00104669 22.9956C0.00750998 23.2464 0.0809491 23.4909 0.213748 23.7037L3.96375 29.7037C4.09039 29.906 4.26635 30.0727 4.47511 30.1883C4.68386 30.3039 4.91857 30.3645 5.15719 30.3645C5.3958 30.3645 5.63051 30.3039 5.83926 30.1883C6.04802 30.0727 6.22398 29.906 6.35062 29.7037L10.1006 23.7037C10.2315 23.4922 10.304 23.2497 10.3106 23.001C10.3172 22.7523 10.2577 22.5063 10.1381 22.2881Z" fill="#CFF9AF"/>
<path d="M44.7862 21.2869L41.0362 15.2869C40.9009 15.0965 40.7219 14.9412 40.5143 14.8341C40.3067 14.727 40.0764 14.6711 39.8428 14.6711C39.6092 14.6711 39.379 14.727 39.1713 14.8341C38.9637 14.9412 38.7848 15.0965 38.6494 15.2869L34.8994 21.2869C34.7666 21.4997 34.6931 21.7442 34.6867 21.995C34.6802 22.2458 34.741 22.4938 34.8626 22.7132C34.9843 22.9326 35.1624 23.1155 35.3786 23.2428C35.5947 23.3702 35.841 23.4374 36.0919 23.4375H36.9094C37.0434 23.4364 37.1762 23.464 37.2987 23.5185C37.4212 23.5731 37.5305 23.6533 37.6194 23.7537C37.7083 23.8541 37.7745 23.9724 37.8138 24.1006C37.853 24.2288 37.8643 24.3639 37.8469 24.4969C37.4557 27.5154 36.1828 30.3514 34.1874 32.6498C32.1921 34.9482 29.563 36.6069 26.6294 37.4182C23.6958 38.2295 20.588 38.1573 17.6953 37.2106C14.8025 36.2639 12.2533 34.4849 10.3669 32.0963C10.055 31.7165 9.60648 31.4743 9.11785 31.4219C8.62922 31.3694 8.13953 31.5109 7.75418 31.8159C7.36883 32.1209 7.11863 32.565 7.05741 33.0526C6.9962 33.5402 7.12887 34.0324 7.42687 34.4231C9.80827 37.4341 13.0368 39.6629 16.6964 40.8223C20.356 41.9817 24.279 42.0186 27.9598 40.9282C31.6405 39.8378 34.9104 37.6701 37.348 34.7044C39.7856 31.7387 41.2792 28.111 41.6362 24.2888C41.6578 24.0554 41.766 23.8385 41.9396 23.6809C42.1131 23.5234 42.3393 23.4365 42.5737 23.4375H43.5994C43.8503 23.4374 44.0965 23.3702 44.3127 23.2428C44.5288 23.1155 44.707 22.9326 44.8286 22.7132C44.9503 22.4938 45.011 22.2458 45.0046 21.995C44.9981 21.7442 44.9247 21.4997 44.7919 21.2869H44.7862Z" fill="#CFF9AF"/>
<path d="M25.0763 20.8444C23.2644 22.4185 21.9259 24.4654 21.21 26.7563C21.1249 26.9824 21.1305 27.2327 21.2255 27.4549C21.3205 27.6771 21.4977 27.854 21.72 27.9488C22.1689 28.1413 22.6494 28.2494 23.1375 28.2675C24.1218 28.2043 25.0759 27.9022 25.9172 27.3873C26.7584 26.8724 27.4615 26.1603 27.9656 25.3125C28.967 23.335 29.4731 21.1439 29.4404 18.9275C29.4077 16.7112 28.8373 14.5359 27.7781 12.5888C27.7006 12.472 27.5978 12.3741 27.4775 12.3022C27.3571 12.2304 27.2221 12.1865 27.0825 12.1737C26.9429 12.1609 26.8022 12.1796 26.6708 12.2284C26.5394 12.2772 26.4206 12.3548 26.3231 12.4556C25.075 13.679 23.5797 14.6213 21.9375 15.2194C20.4995 15.7503 19.1665 16.5311 18 17.5256C17.3433 18.0548 16.827 18.7375 16.4967 19.5135C16.1664 20.2895 16.0323 21.1349 16.1063 21.975C16.264 22.907 16.7406 23.7553 17.4544 24.375C17.5921 24.5017 17.6887 24.6668 17.7318 24.8489C17.7749 25.031 17.7625 25.2219 17.6963 25.3969C16.9401 27.4167 16.388 29.5071 16.0481 31.6369C16.0136 31.8833 16.0783 32.1333 16.2281 32.332C16.3779 32.5307 16.6005 32.6617 16.8469 32.6963C17.0933 32.7308 17.3433 32.6661 17.542 32.5163C17.7407 32.3665 17.8717 32.1439 17.9063 31.8975C18.5325 27.7725 20.5706 21.7388 23.9869 19.32C24.1893 19.1755 24.4408 19.1174 24.686 19.1584C24.9313 19.1993 25.1502 19.336 25.2947 19.5384C25.4392 19.7408 25.4973 19.9923 25.4563 20.2376C25.4154 20.4828 25.2786 20.7018 25.0763 20.8463V20.8444Z" fill="#CFF9AF"/>
</g>
<defs>
<clipPath id="clip0">
<rect width="45" height="45" fill="white"/>
</clipPath>
</defs>
</svg>
