<svg width="43" height="43" viewBox="0 0 43 43" fill="none" xmlns="http://www.w3.org/2000/svg">
<g clip-path="url(#clip0)">
<path d="M41.8551 17.8862C41.4935 17.0402 40.8203 16.3657 39.975 16.0024C39.1297 15.6391 38.177 15.6149 37.3144 15.9348C36.4517 16.2547 35.7451 16.8941 35.341 17.7207C34.9369 18.5472 34.8662 19.4976 35.1435 20.3748C33.6798 15.7272 29.24 12.4288 23.0247 10.6998C22.7309 10.6049 22.1056 10.4651 22.1002 10.4472C21.6147 10.2504 21.1788 9.94865 20.8235 9.56364C20.4682 9.17864 20.2024 8.71987 20.0452 8.22017C19.8421 7.56961 19.8281 6.87474 20.0048 6.21653C20.1815 5.55832 20.5416 4.96388 21.0431 4.50246C21.2516 4.30956 21.503 4.16899 21.7765 4.09236C22.05 4.01572 22.3378 4.00522 22.6162 4.06171C23.9062 4.32329 25.1514 4.64758 26.3429 5.01488C34.1295 7.37629 39.7965 11.7712 41.8551 17.8862Z" stroke="#FFE153" stroke-width="2" stroke-linecap="round" stroke-linejoin="round"/>
<path d="M19.1081 11.5742C19.7839 12.0403 20.2876 12.7159 20.5415 13.4966C21.3029 15.9136 19.3213 18.6925 16.116 19.703C14.6427 20.1971 13.0487 20.199 11.5742 19.7083" stroke="#FFE153" stroke-width="2" stroke-linecap="round" stroke-linejoin="round"/>
<path d="M0.96571 31.1428L2.0425 34.5595L13.5074 30.9475" stroke="#FFE153" stroke-width="2" stroke-linecap="round" stroke-linejoin="round"/>
<path d="M29.6324 25.8681L39.6388 22.7165C40.5531 22.342 41.2908 21.6338 41.7024 20.7355C42.1139 19.8372 42.1685 18.8161 41.8551 17.879" stroke="#FFE153" stroke-width="2" stroke-linecap="round" stroke-linejoin="round"/>
<path d="M18.8824 29.2543L24.2574 27.5612" stroke="#FFE153" stroke-width="2" stroke-linecap="round" stroke-linejoin="round"/>
<path d="M35.1435 20.3748L29.6324 22.111V36.2812C29.6324 36.994 29.3492 37.6776 28.8452 38.1816C28.3412 38.6856 27.6576 38.9687 26.9449 38.9687C26.2321 38.9687 25.5485 38.6856 25.0445 38.1816C24.5405 37.6776 24.2574 36.994 24.2574 36.2812V23.8041L18.8824 25.499V31.8021C18.8824 32.5149 18.5992 33.1984 18.0952 33.7024C17.5912 34.2064 16.9076 34.4896 16.1949 34.4896C15.4821 34.4896 14.7985 34.2064 14.2945 33.7024C13.7905 33.1984 13.5074 32.5149 13.5074 31.8021L13.4948 27.1957L0.96571 31.1374L20.8962 9.63737" stroke="#FFE153" stroke-width="2" stroke-linecap="round" stroke-linejoin="round"/>
</g>
<defs>
<clipPath id="clip0">
<rect width="43" height="43" fill="white"/>
</clipPath>
</defs>
</svg>
