<svg width="32" height="32" viewBox="0 0 32 32" fill="none" xmlns="http://www.w3.org/2000/svg">
<g clip-path="url(#clip0)">
<path d="M29.3107 24.8307C29.072 24.8308 28.8377 24.8949 28.6322 25.0164C28.4268 25.1378 28.2577 25.3123 28.1427 25.5214C26.6213 28.2921 26.6213 29.0574 26.6213 29.3094C26.6134 29.6677 26.6771 30.024 26.8087 30.3573C26.9403 30.6907 27.1371 30.9944 27.3877 31.2506C27.6383 31.5068 27.9375 31.7104 28.2679 31.8494C28.5982 31.9884 28.953 32.0599 29.3113 32.0599C29.6697 32.0599 30.0245 31.9884 30.3548 31.8494C30.6852 31.7104 30.9844 31.5068 31.235 31.2506C31.4856 30.9944 31.6824 30.6907 31.814 30.3573C31.9456 30.024 32.0093 29.6677 32.0013 29.3094C32.0013 29.0574 32.0013 28.2907 30.4787 25.5214C30.3636 25.3123 30.1946 25.1378 29.9891 25.0164C29.7837 24.8949 29.5494 24.8308 29.3107 24.8307Z" fill="#C8F4FC"/>
<path d="M20.6667 9.33334C20.4899 9.33334 20.3203 9.40358 20.1953 9.52861C20.0702 9.65363 20 9.8232 20 10V16.6667C20 16.8435 20.0702 17.0131 20.1953 17.1381C20.3203 17.2631 20.4899 17.3333 20.6667 17.3333H23.3333C23.8638 17.3333 24.3725 17.5441 24.7475 17.9191C25.1226 18.2942 25.3333 18.8029 25.3333 19.3333V21.3333C25.3333 21.687 25.4738 22.0261 25.7239 22.2762C25.9739 22.5262 26.313 22.6667 26.6667 22.6667H30.6667C31.0203 22.6667 31.3594 22.5262 31.6095 22.2762C31.8595 22.0261 32 21.687 32 21.3333V19.3333C32 10.3067 24.0747 9.33334 20.6667 9.33334Z" fill="#C8F4FC"/>
<path d="M4.66667 9.33334H0.666667C0.298477 9.33334 0 9.63182 0 10V16.6667C0 17.0349 0.298477 17.3333 0.666667 17.3333H4.66667C5.03486 17.3333 5.33333 17.0349 5.33333 16.6667V10C5.33333 9.63182 5.03486 9.33334 4.66667 9.33334Z" fill="#C8F4FC"/>
<path d="M15.676 5.46667C15.5777 5.44121 15.4907 5.38375 15.4286 5.30336C15.3666 5.22297 15.3331 5.12422 15.3333 5.02267V5C15.3333 4.82319 15.4036 4.65362 15.5286 4.5286C15.6536 4.40357 15.8232 4.33333 16 4.33333H22.3333C22.687 4.33333 23.0261 4.19286 23.2761 3.94281C23.5262 3.69276 23.6667 3.35362 23.6667 3C23.6667 2.64638 23.5262 2.30724 23.2761 2.05719C23.0261 1.80714 22.687 1.66667 22.3333 1.66667H15.6667C15.5783 1.66667 15.4935 1.63155 15.431 1.56904C15.3685 1.50652 15.3333 1.42174 15.3333 1.33333C15.3333 0.979711 15.1929 0.640573 14.9428 0.390524C14.6928 0.140476 14.3536 0 14 0L11.3333 0C10.9797 0 10.6406 0.140476 10.3905 0.390524C10.1405 0.640573 10 0.979711 10 1.33333C10 1.42174 9.96488 1.50652 9.90237 1.56904C9.83986 1.63155 9.75507 1.66667 9.66667 1.66667H3C2.64638 1.66667 2.30724 1.80714 2.05719 2.05719C1.80714 2.30724 1.66667 2.64638 1.66667 3C1.66667 3.35362 1.80714 3.69276 2.05719 3.94281C2.30724 4.19286 2.64638 4.33333 3 4.33333H9.33333C9.51015 4.33333 9.67972 4.40357 9.80474 4.5286C9.92976 4.65362 10 4.82319 10 5C9.99974 5.10657 9.96432 5.21007 9.89923 5.29445C9.83413 5.37883 9.74301 5.43936 9.64 5.46667C8.78817 5.69451 8.03521 6.19683 7.49769 6.89584C6.96018 7.59484 6.6681 8.45156 6.66667 9.33333V17.3333C6.66667 18.3942 7.0881 19.4116 7.83824 20.1618C8.58839 20.9119 9.6058 21.3333 10.6667 21.3333H14.6667C15.7275 21.3333 16.745 20.9119 17.4951 20.1618C18.2452 19.4116 18.6667 18.3942 18.6667 17.3333V9.33333C18.6644 8.44922 18.37 7.59064 17.829 6.8913C17.2881 6.19195 16.5312 5.69108 15.676 5.46667Z" fill="#C8F4FC"/>
</g>
<defs>
<clipPath id="clip0">
<rect width="32" height="32" fill="white"/>
</clipPath>
</defs>
</svg>
