<svg width="36" height="36" viewBox="0 0 36 36" fill="none" xmlns="http://www.w3.org/2000/svg">
<g clip-path="url(#clip0)">
<path d="M8.1315 33.3885C9.37414 33.3885 10.3815 32.3811 10.3815 31.1385C10.3815 29.8959 9.37414 28.8885 8.1315 28.8885C6.88886 28.8885 5.8815 29.8959 5.8815 31.1385C5.8815 32.3811 6.88886 33.3885 8.1315 33.3885Z" stroke="#CFF9AF" stroke-width="2" stroke-linecap="round" stroke-linejoin="round"/>
<path d="M24.6315 33.3885C25.8741 33.3885 26.8815 32.3811 26.8815 31.1385C26.8815 29.8959 25.8741 28.8885 24.6315 28.8885C23.3889 28.8885 22.3815 29.8959 22.3815 31.1385C22.3815 32.3811 23.3889 33.3885 24.6315 33.3885Z" stroke="#CFF9AF" stroke-width="2" stroke-linecap="round" stroke-linejoin="round"/>
<path d="M35.1315 3.3885H31.2315C31.0623 3.38845 30.898 3.44562 30.7654 3.55074C30.6328 3.65586 30.5396 3.80273 30.501 3.9675L24.6315 28.8885H8.1315" stroke="#CFF9AF" stroke-width="2" stroke-linecap="round" stroke-linejoin="round"/>
<path d="M25.3815 25.8885H6.4215C6.26416 25.8884 6.11083 25.8388 5.98323 25.7467C5.85563 25.6547 5.76022 25.5248 5.7105 25.3755L1.71 13.3755C1.67243 13.2627 1.66221 13.1426 1.6802 13.025C1.69819 12.9075 1.74387 12.7959 1.81346 12.6995C1.88306 12.6031 1.97458 12.5246 2.08047 12.4706C2.18636 12.4165 2.3036 12.3884 2.4225 12.3885H28.4745" stroke="#CFF9AF" stroke-width="2" stroke-linecap="round" stroke-linejoin="round"/>
<path d="M16.3815 12.3885L21.8565 6.91349C21.9967 6.77607 22.1852 6.6991 22.3815 6.6991C22.5778 6.6991 22.7663 6.77607 22.9065 6.91349L28.5 12.3885" stroke="#CFF9AF" stroke-width="2" stroke-linecap="round" stroke-linejoin="round"/>
<path d="M8.8815 12.3885L4.695 3.05401C4.65413 2.96284 4.59546 2.88075 4.52242 2.81257C4.44939 2.74439 4.36347 2.69149 4.26971 2.65698C4.17595 2.62247 4.07624 2.60703 3.97643 2.61159C3.87662 2.61614 3.77873 2.6406 3.6885 2.68351L1.2885 3.82201C1.11118 3.90659 0.974129 4.05738 0.90681 4.24194C0.839491 4.42651 0.847279 4.63012 0.928502 4.80901L4.3785 12.3885" stroke="#CFF9AF" stroke-width="2" stroke-linecap="round" stroke-linejoin="round"/>
<path d="M10.3815 12.3885V8.6385C10.3815 8.43959 10.4605 8.24883 10.6012 8.10817C10.7418 7.96752 10.9326 7.8885 11.1315 7.8885H17.1315" stroke="#CFF9AF" stroke-width="2" stroke-linecap="round" stroke-linejoin="round"/>
</g>
<defs>
<clipPath id="clip0">
<rect width="36" height="36" fill="white"/>
</clipPath>
</defs>
</svg>
