<svg width="37" height="36" viewBox="0 0 37 36" fill="none" xmlns="http://www.w3.org/2000/svg">
<path d="M30.7187 18.3759C30.3208 18.3759 29.9392 18.534 29.6579 18.8153C29.3765 19.0967 29.2184 19.4783 29.2184 19.8762C29.2186 20.744 28.8794 21.5775 28.2732 22.1987C28.2112 22.2656 28.1303 22.3121 28.0412 22.332C27.9522 22.3519 27.8592 22.3443 27.7745 22.3101C27.6899 22.2759 27.6177 22.2168 27.5674 22.1407C27.5171 22.0645 27.4912 21.9749 27.4931 21.8836C27.4919 21.2787 27.4296 20.6756 27.307 20.0832C27.2707 19.9007 27.1678 19.7382 27.0184 19.6273C26.8689 19.5164 26.6836 19.465 26.4984 19.4831C26.4174 19.4831 26.3363 19.4951 26.2553 19.4951C25.8506 19.4952 25.45 19.4133 25.0776 19.2545C24.7053 19.0957 24.369 18.8631 24.0889 18.5709L17.5896 11.7896C17.348 11.5385 17.0265 11.3794 16.6804 11.3395C15.3659 11.1854 14.0367 11.2091 12.7286 11.41C12.6018 11.4298 12.472 11.4167 12.3517 11.3721C12.2314 11.3274 12.1246 11.2527 12.0414 11.1549C11.4223 10.4308 10.6121 9.89539 9.70321 9.60968C8.79436 9.32397 7.82349 9.29951 6.9014 9.5391C6.66473 9.60006 6.4487 9.7233 6.27577 9.89601C6.10285 10.0687 5.97934 10.2846 5.91809 10.5212C5.85683 10.7578 5.86007 11.0065 5.92745 11.2414C5.99484 11.4763 6.12392 11.6889 6.30128 11.8571C6.60992 12.1511 6.86391 12.4975 7.05143 12.8803C7.1291 13.0386 7.14851 13.2192 7.10626 13.3904C7.06401 13.5616 6.96279 13.7125 6.82038 13.8165C4.93709 15.1396 3.5428 17.047 2.85358 19.2431C2.79719 19.4314 2.68169 19.5965 2.52416 19.714C2.36663 19.8316 2.17545 19.8953 1.9789 19.8957C1.45336 19.8985 0.950268 20.1091 0.579494 20.4816C0.208719 20.854 0.000389019 21.3581 0 21.8836L0 24.3576C0.000397364 24.8847 0.209964 25.3901 0.582682 25.7628C0.955401 26.1355 1.4608 26.3451 1.9879 26.3455H3.18815C3.31833 26.3455 3.44627 26.3794 3.55938 26.4439C3.67249 26.5083 3.76689 26.6011 3.83328 26.7131C4.71931 28.1644 5.92331 29.3956 7.35449 30.3138C7.49062 30.4041 7.59358 30.5362 7.64773 30.6903C7.70189 30.8444 7.70428 31.0119 7.65455 31.1675L6.75137 34.0541C6.66975 34.4205 6.72847 34.8042 6.91594 35.1295C7.10341 35.4547 7.40601 35.6979 7.764 35.8109C8.12199 35.924 8.50935 35.8987 8.84961 35.7401C9.18988 35.5815 9.45832 35.3011 9.60195 34.9543L10.3716 32.5298C10.4302 32.346 10.5574 32.1918 10.7267 32.0993C10.896 32.0068 11.0945 31.9832 11.2808 32.0332C13.7039 32.6922 16.2586 32.6953 18.6833 32.0422C18.8694 31.9926 19.0675 32.0165 19.2365 32.1089C19.4054 32.2014 19.5324 32.3553 19.591 32.5388L20.3576 34.9543C20.4782 35.3335 20.7445 35.6492 21.0979 35.8321C21.4512 36.015 21.8628 36.05 22.242 35.9295C22.6212 35.8089 22.937 35.5426 23.1199 35.1892C23.3028 34.8358 23.3378 34.4243 23.2172 34.0451L22.302 31.1615C22.2527 31.0061 22.2552 30.8389 22.3094 30.6852C22.3635 30.5314 22.4663 30.3995 22.6021 30.3093C23.9961 29.4028 25.174 28.2012 26.0528 26.7896C26.1617 26.6121 26.3064 26.4591 26.4777 26.3406C26.6489 26.222 26.843 26.1404 27.0475 26.101C28.4984 25.8246 29.8079 25.0517 30.751 23.915C31.6942 22.7783 32.2122 21.3487 32.216 19.8717C32.2149 19.4751 32.0567 19.0951 31.7761 18.8148C31.4955 18.5345 31.1153 18.3767 30.7187 18.3759ZM7.55854 21.396C7.28749 21.3963 7.02245 21.3162 6.79696 21.1658C6.57147 21.0154 6.39567 20.8015 6.29181 20.5511C6.18795 20.3008 6.1607 20.0252 6.2135 19.7594C6.26631 19.4935 6.3968 19.2493 6.58846 19.0577C6.78011 18.866 7.02432 18.7355 7.29017 18.6827C7.55602 18.6299 7.83156 18.6571 8.08192 18.761C8.33228 18.8649 8.54619 19.0407 8.69659 19.2662C8.84699 19.4916 8.92711 19.7567 8.92681 20.0277C8.92602 20.3904 8.78161 20.7379 8.52518 20.9944C8.26875 21.2508 7.92118 21.3952 7.55854 21.396Z" fill="#C8F4FC"/>
<path d="M35.4477 2.92289C35.0727 2.17348 34.525 1.52387 33.8498 1.02757C33.1746 0.531267 32.3911 0.202477 31.564 0.0682768C30.7368 -0.0659235 29.8896 -0.00169391 29.0921 0.255675C28.2946 0.513044 27.5696 0.956189 26.977 1.54861C26.7854 1.74018 26.5255 1.8478 26.2546 1.8478C25.9836 1.8478 25.7238 1.74018 25.5322 1.54861C24.5398 0.565407 23.1988 0.0147411 21.8019 0.0168427C20.405 0.0189443 19.0656 0.573643 18.0763 1.55983C17.0869 2.54601 16.5279 3.88358 16.5214 5.28048C16.5148 6.67738 17.0611 8.02016 18.0411 9.01563L25.7122 17.0198C25.7822 17.0928 25.8663 17.151 25.9594 17.1907C26.0525 17.2304 26.1526 17.2509 26.2538 17.2509C26.355 17.2509 26.4552 17.2304 26.5482 17.1907C26.6413 17.151 26.7254 17.0928 26.7954 17.0198L34.4575 9.02763C35.2429 8.24307 35.7612 7.23107 35.939 6.13526C36.1167 5.03944 35.9448 3.91548 35.4477 2.92289Z" fill="#C8F4FC"/>
</svg>
