<svg width="35" height="34" viewBox="0 0 35 34" fill="none" xmlns="http://www.w3.org/2000/svg">
<path d="M11.3399 7.08333C11.3399 3.17758 8.79845 0 5.67328 0C2.54811 0 0.00661206 3.17758 0.00661206 7.08333C-0.0490767 8.38514 0.247833 9.67782 0.865984 10.8248C1.48413 11.9719 2.40058 12.9307 3.51853 13.6C3.63429 13.6596 3.73136 13.75 3.79909 13.8612C3.86682 13.9725 3.90258 14.1002 3.90245 14.2304V32.2292C3.90245 32.6988 4.08902 33.1492 4.42111 33.4813C4.75321 33.8134 5.20362 34 5.67328 34C6.14293 34 6.59335 33.8134 6.92545 33.4813C7.25754 33.1492 7.44411 32.6988 7.44411 32.2292V14.229C7.44424 14.099 7.48012 13.9716 7.54784 13.8606C7.61555 13.7497 7.71249 13.6595 7.82803 13.6C8.94598 12.9307 9.86242 11.9719 10.4806 10.8248C11.0987 9.67782 11.3956 8.38514 11.3399 7.08333Z" fill="#FFE153"/>
<path d="M23.3816 19.4792C23.3816 19.2913 23.3069 19.1111 23.1741 18.9783C23.0412 18.8455 22.8611 18.7708 22.6732 18.7708H19.8399C19.652 18.7708 19.4719 18.6962 19.339 18.5634C19.2062 18.4305 19.1316 18.2504 19.1316 18.0625V15.2292C19.1316 15.0413 19.0569 14.8611 18.9241 14.7283C18.7912 14.5955 18.6111 14.5208 18.4232 14.5208H14.8816C14.6937 14.5208 14.5135 14.5955 14.3807 14.7283C14.2478 14.8611 14.1732 15.0413 14.1732 15.2292V18.0625C14.1732 18.2504 14.0986 18.4305 13.9658 18.5634C13.8329 18.6962 13.6527 18.7708 13.4649 18.7708H10.6316C10.4437 18.7708 10.2635 18.8455 10.1307 18.9783C9.99785 19.1111 9.92322 19.2913 9.92322 19.4792V23.0208C9.92322 23.2087 9.99785 23.3889 10.1307 23.5217C10.2635 23.6545 10.4437 23.7292 10.6316 23.7292H13.4649C13.6527 23.7292 13.8329 23.8038 13.9658 23.9366C14.0986 24.0695 14.1732 24.2496 14.1732 24.4375V27.2708C14.1732 27.4587 14.2478 27.6389 14.3807 27.7717C14.5135 27.9045 14.6937 27.9792 14.8816 27.9792H18.4232C18.6111 27.9792 18.7912 27.9045 18.9241 27.7717C19.0569 27.6389 19.1316 27.4587 19.1316 27.2708V24.4375C19.1316 24.2496 19.2062 24.0695 19.339 23.9366C19.4719 23.8038 19.652 23.7292 19.8399 23.7292H22.6732C22.8611 23.7292 23.0412 23.6545 23.1741 23.5217C23.3069 23.3889 23.3816 23.2087 23.3816 23.0208V19.4792Z" fill="#FFE153"/>
<path d="M32.2357 0C31.7661 0 31.3156 0.186569 30.9835 0.518665C30.6515 0.850761 30.4649 1.30118 30.4649 1.77083V8.85417C30.4645 9.13584 30.3524 9.40588 30.1533 9.60505C29.9541 9.80423 29.6841 9.91629 29.4024 9.91667C29.3085 9.91667 29.2184 9.87935 29.152 9.81293C29.0855 9.74651 29.0482 9.65643 29.0482 9.5625V1.77083C29.0482 1.30118 28.8617 0.850761 28.5296 0.518665C28.1975 0.186569 27.747 0 27.2774 0C26.8077 0 26.3573 0.186569 26.0252 0.518665C25.6931 0.850761 25.5066 1.30118 25.5066 1.77083V9.5625C25.5066 9.65643 25.4692 9.74651 25.4028 9.81293C25.3364 9.87935 25.2463 9.91667 25.1524 9.91667C24.8707 9.91629 24.6007 9.80423 24.4015 9.60505C24.2023 9.40588 24.0903 9.13584 24.0899 8.85417V1.77083C24.0899 1.30118 23.9033 0.850761 23.5712 0.518665C23.2391 0.186569 22.7887 0 22.3191 0C21.8494 0 21.399 0.186569 21.0669 0.518665C20.7348 0.850761 20.5482 1.30118 20.5482 1.77083V8.85417C20.5497 10.0748 21.0353 11.245 21.8984 12.1081C22.7615 12.9713 23.9317 13.4568 25.1524 13.4583C25.2463 13.4583 25.3364 13.4956 25.4028 13.5621C25.4692 13.6285 25.5066 13.7186 25.5066 13.8125V32.2292C25.5066 32.6988 25.6931 33.1492 26.0252 33.4813C26.3573 33.8134 26.8077 34 27.2774 34C27.747 34 28.1975 33.8134 28.5296 33.4813C28.8617 33.1492 29.0482 32.6988 29.0482 32.2292V13.8125C29.0482 13.7186 29.0855 13.6285 29.152 13.5621C29.2184 13.4956 29.3085 13.4583 29.4024 13.4583C30.623 13.4568 31.7932 12.9713 32.6564 12.1081C33.5195 11.245 34.0051 10.0748 34.0066 8.85417V1.77083C34.0066 1.53828 33.9607 1.30801 33.8718 1.09316C33.7828 0.878317 33.6523 0.683102 33.4879 0.518665C33.3235 0.354228 33.1282 0.223789 32.9134 0.134797C32.6985 0.045804 32.4683 0 32.2357 0V0Z" fill="#FFE153"/>
</svg>
