<svg width="34" height="35" viewBox="0 0 34 35" fill="none" xmlns="http://www.w3.org/2000/svg">
<path d="M20.1769 12.7609H24.7974C25.0669 12.761 25.3309 12.6843 25.5583 12.5397C25.7857 12.3951 25.9672 12.1886 26.0815 11.9445C27.5746 8.51269 28.0284 4.71831 27.3869 1.03113C27.3527 0.826709 27.2677 0.634175 27.1395 0.471279C27.0114 0.308383 26.8443 0.180367 26.6537 0.0990335C26.4631 0.0177006 26.255 -0.0143313 26.0488 0.00589118C25.8425 0.0261137 25.6447 0.0979397 25.4735 0.214747C23.0975 1.66116 20.3415 2.35991 17.5634 2.22026C11.0252 2.22026 8.27563 4.91319 8.24303 4.95287C7.10246 5.79787 6.18749 6.91071 5.57891 8.19312C4.97034 9.47552 4.68688 10.888 4.75357 12.306C4.76327 12.5127 4.72756 12.7191 4.64896 12.9106C4.57036 13.1021 4.45077 13.274 4.29861 13.4143C3.85073 13.8282 3.11939 14.5482 0.420801 17.0994C0.156901 17.3603 0.00587479 17.7143 0.000167796 18.0854C-0.0055392 18.4565 0.134528 18.815 0.390279 19.0839C0.64603 19.3529 0.99706 19.5107 1.36796 19.5237C1.73885 19.5366 2.10002 19.4035 2.37388 19.1531C6.78318 14.6913 10.009 11.9686 15.9958 9.90643C16.2541 9.84199 16.5272 9.87684 16.7611 10.0041C16.995 10.1313 17.1726 10.3417 17.2588 10.5936C17.345 10.8455 17.3336 11.1205 17.2267 11.3644C17.1199 11.6083 16.9254 11.8032 16.6818 11.9105C13.303 13.0215 10.1882 14.8141 7.53011 17.1773C7.45808 17.2438 7.40062 17.3244 7.36134 17.4142C7.32206 17.504 7.30183 17.6009 7.30192 17.6989C7.30269 17.7969 7.32345 17.8937 7.36293 17.9834C7.40241 18.073 7.45978 18.1537 7.53153 18.2205C9.11523 19.679 11.1896 20.4885 13.3426 20.4882C14.5285 20.4794 15.7066 20.2961 16.8391 19.9439C17.0101 19.8921 17.1552 19.7776 17.2453 19.6233C17.3355 19.469 17.364 19.2864 17.3253 19.112C17.0977 18.0739 16.9846 17.014 16.9879 15.9513C16.9877 15.5324 17.0701 15.1176 17.2303 14.7305C17.3905 14.3435 17.6253 13.9917 17.9215 13.6955C18.2176 13.3992 18.5692 13.1642 18.9562 13.0038C19.3432 12.8435 19.758 12.7609 20.1769 12.7609Z" fill="#FFE153"/>
<path d="M30.6722 24.9925C30.5944 24.926 30.5319 24.8434 30.4891 24.7504C30.4463 24.6574 30.4241 24.5563 30.4241 24.4539C30.4241 24.3515 30.4463 24.2504 30.4891 24.1574C30.5319 24.0644 30.5944 23.9819 30.6722 23.9153C31.7589 22.8989 32.6172 21.6631 33.1902 20.2899C33.7632 18.9167 34.0378 17.4373 33.9958 15.9499C33.9958 15.668 33.8838 15.3976 33.6845 15.1983C33.4851 14.9989 33.2147 14.887 32.9328 14.887C32.6509 14.887 32.3805 14.9989 32.1812 15.1983C31.9818 15.3976 31.8698 15.668 31.8698 15.9499C31.8698 16.0439 31.8325 16.134 31.766 16.2005C31.6996 16.2669 31.6095 16.3043 31.5155 16.3043H21.5942C21.5002 16.3043 21.4101 16.2669 21.3436 16.2005C21.2772 16.134 21.2399 16.0439 21.2399 15.9499C21.2399 15.668 21.1279 15.3976 20.9285 15.1983C20.7292 14.9989 20.4588 14.887 20.1769 14.887C19.8949 14.887 19.6246 14.9989 19.4252 15.1983C19.2259 15.3976 19.1139 15.668 19.1139 15.9499C19.0718 17.4373 19.3464 18.9167 19.9194 20.2899C20.4924 21.6632 21.3507 22.8989 22.4375 23.9153C22.5153 23.9819 22.5778 24.0644 22.6206 24.1574C22.6634 24.2504 22.6856 24.3515 22.6856 24.4539C22.6856 24.5563 22.6634 24.6574 22.6206 24.7504C22.5778 24.8434 22.5153 24.926 22.4375 24.9925C21.3507 26.0089 20.4924 27.2446 19.9194 28.6179C19.3464 29.9911 19.0718 31.4705 19.1139 32.9579C19.1139 33.2398 19.2259 33.5102 19.4252 33.7095C19.6246 33.9089 19.8949 34.0209 20.1769 34.0209C20.4588 34.0209 20.7292 33.9089 20.9285 33.7095C21.1279 33.5102 21.2399 33.2398 21.2399 32.9579C21.2399 32.8639 21.2772 32.7738 21.3436 32.7073C21.4101 32.6409 21.5002 32.6035 21.5942 32.6035H31.5155C31.6095 32.6035 31.6996 32.6409 31.766 32.7073C31.8325 32.7738 31.8698 32.8639 31.8698 32.9579C31.8698 33.2398 31.9818 33.5102 32.1812 33.7095C32.3805 33.9089 32.6509 34.0209 32.9328 34.0209C33.2147 34.0209 33.4851 33.9089 33.6845 33.7095C33.8838 33.5102 33.9958 33.2398 33.9958 32.9579C34.0378 31.4705 33.7632 29.9912 33.1902 28.6179C32.6172 27.2447 31.7589 26.0089 30.6722 24.9925ZM22.507 19.8476C22.3624 19.8478 22.2213 19.8037 22.1024 19.7214C21.9836 19.6391 21.8928 19.5224 21.8422 19.387C21.7813 19.2254 21.7246 19.0581 21.6722 18.8895C21.656 18.8364 21.6525 18.7804 21.6619 18.7257C21.6713 18.6711 21.6933 18.6194 21.7262 18.5748C21.7591 18.5302 21.802 18.4939 21.8514 18.4688C21.9009 18.4437 21.9555 18.4305 22.0109 18.4303H31.0988C31.1542 18.4305 31.2088 18.4437 31.2583 18.4688C31.3077 18.4939 31.3505 18.5302 31.3835 18.5748C31.4164 18.6194 31.4384 18.6711 31.4478 18.7257C31.4572 18.7804 31.4537 18.8364 31.4375 18.8895C31.3851 19.0581 31.3284 19.2254 31.2675 19.387C31.2169 19.5221 31.1264 19.6387 31.0078 19.721C30.8893 19.8033 30.7485 19.8475 30.6041 19.8476H22.507ZM28.9104 22.6185C28.2275 23.1202 27.4023 23.3908 26.5548 23.3908C25.7074 23.3908 24.8822 23.1202 24.1992 22.6185C24.1374 22.5753 24.091 22.5136 24.0667 22.4422C24.0423 22.3709 24.0414 22.2936 24.064 22.2217C24.0866 22.1498 24.1316 22.0869 24.1923 22.0423C24.2531 21.9977 24.3265 21.9736 24.4019 21.9736H28.7092C28.7844 21.9739 28.8577 21.9982 28.9182 22.0429C28.9787 22.0877 29.0235 22.1505 29.0459 22.2224C29.0683 22.2942 29.0673 22.3713 29.0429 22.4426C29.0186 22.5138 28.9722 22.5754 28.9104 22.6185ZM29.0522 26.6848C29.0298 26.7579 28.9842 26.8218 28.9223 26.8668C28.8605 26.9118 28.7857 26.9354 28.7092 26.9342H24.4019C24.3265 26.9342 24.2531 26.9101 24.1923 26.8655C24.1316 26.8209 24.0866 26.7581 24.064 26.6861C24.0414 26.6142 24.0423 26.537 24.0667 26.4656C24.091 26.3942 24.1374 26.3325 24.1992 26.2893C24.8822 25.7876 25.7074 25.517 26.5548 25.517C27.4023 25.517 28.2275 25.7876 28.9104 26.2893C28.9725 26.332 29.0192 26.3934 29.0437 26.4646C29.0682 26.5358 29.0692 26.613 29.0465 26.6848H29.0522ZM31.2731 29.5194C31.3341 29.681 31.3908 29.8483 31.4432 30.0169C31.4593 30.0699 31.4628 30.126 31.4534 30.1806C31.4441 30.2353 31.422 30.287 31.3891 30.3316C31.3562 30.3762 31.3133 30.4125 31.2639 30.4376C31.2145 30.4627 31.1599 30.4759 31.1045 30.4761H22.0109C21.9555 30.4759 21.9009 30.4627 21.8514 30.4376C21.802 30.4125 21.7591 30.3762 21.7262 30.3316C21.6933 30.287 21.6713 30.2353 21.6619 30.1806C21.6525 30.126 21.656 30.0699 21.6722 30.0169C21.7246 29.8483 21.7813 29.681 21.8422 29.5194C21.8928 29.384 21.9836 29.2673 22.1024 29.185C22.2213 29.1027 22.3624 29.0586 22.507 29.0588H30.6041C30.7486 29.059 30.8896 29.1034 31.0081 29.186C31.1267 29.2686 31.2172 29.3854 31.2675 29.5209L31.2731 29.5194Z" fill="#FFE153"/>
</svg>
