<svg width="31" height="31" viewBox="0 0 31 31" fill="none" xmlns="http://www.w3.org/2000/svg">
<g clip-path="url(#clip0)">
<path d="M22.63 6.82003C22.2189 6.82003 21.8246 6.98333 21.5339 7.27401C21.2433 7.5647 21.08 7.95894 21.08 8.37003V13.33C21.08 13.5336 21.12 13.7351 21.1979 13.9232C21.2758 14.1112 21.39 14.2821 21.5339 14.426C21.6779 14.57 21.8487 14.6841 22.0368 14.762C22.2249 14.8399 22.4264 14.88 22.63 14.88C22.8335 14.88 23.0351 14.8399 23.2231 14.762C23.4112 14.6841 23.582 14.57 23.726 14.426C23.8699 14.2821 23.9841 14.1112 24.062 13.9232C24.1399 13.7351 24.18 13.5336 24.18 13.33V8.37003C24.18 7.95894 24.0167 7.5647 23.726 7.27401C23.4353 6.98333 23.041 6.82003 22.63 6.82003Z" fill="#FFE153"/>
<path d="M7.75001 1.85995C7.42114 1.85995 7.10574 1.99059 6.8732 2.22313C6.64065 2.45568 6.51001 2.77108 6.51001 3.09995V19.2199C6.51001 19.5488 6.64065 19.8642 6.8732 20.0968C7.10574 20.3293 7.42114 20.4599 7.75001 20.4599H28.83C29.1589 20.4599 29.4743 20.3293 29.7068 20.0968C29.9394 19.8642 30.07 19.5488 30.07 19.2199V3.09995C30.07 2.77108 29.9394 2.45568 29.7068 2.22313C29.4743 1.99059 29.1589 1.85995 28.83 1.85995H7.75001ZM13.95 15.1912C14.3611 15.1912 14.7553 15.0279 15.046 14.7373C15.3367 14.4466 15.5 14.0523 15.5 13.6412C15.5002 13.6004 15.4923 13.56 15.4768 13.5222C15.4613 13.4844 15.4385 13.4501 15.4097 13.4212C15.3809 13.3923 15.3466 13.3693 15.3089 13.3537C15.2712 13.338 15.2308 13.3299 15.19 13.3299H14.57C14.3234 13.3299 14.0868 13.232 13.9124 13.0576C13.738 12.8831 13.64 12.6466 13.64 12.3999C13.64 12.1533 13.738 11.9167 13.9124 11.7423C14.0868 11.5679 14.3234 11.4699 14.57 11.4699H16.43C16.6768 11.4703 16.9133 11.5686 17.0877 11.7432C17.2621 11.9178 17.36 12.1545 17.36 12.4012V13.6412C17.36 14.5456 17.0007 15.413 16.3612 16.0525C15.7217 16.692 14.8544 17.0512 13.95 17.0512C13.0456 17.0512 12.1783 16.692 11.5388 16.0525C10.8993 15.413 10.54 14.5456 10.54 13.6412V8.68124C10.54 7.77685 10.8993 6.9095 11.5388 6.27C12.1783 5.63051 13.0456 5.27124 13.95 5.27124C14.8544 5.27124 15.7217 5.63051 16.3612 6.27C17.0007 6.9095 17.36 7.77685 17.36 8.68124C17.36 8.92789 17.262 9.16444 17.0876 9.33885C16.9132 9.51326 16.6767 9.61124 16.43 9.61124C16.1834 9.61124 15.9468 9.51326 15.7724 9.33885C15.598 9.16444 15.5 8.92789 15.5 8.68124C15.5 8.27015 15.3367 7.8759 15.046 7.58522C14.7553 7.29454 14.3611 7.13124 13.95 7.13124C13.5389 7.13124 13.1447 7.29454 12.854 7.58522C12.5633 7.8759 12.4 8.27015 12.4 8.68124V13.6412C12.4 14.0523 12.5633 14.4466 12.854 14.7373C13.1447 15.0279 13.5389 15.1912 13.95 15.1912ZM26.04 13.3299C26.04 14.2343 25.6807 15.1017 25.0412 15.7412C24.4017 16.3807 23.5344 16.7399 22.63 16.7399C21.7256 16.7399 20.8583 16.3807 20.2188 15.7412C19.5793 15.1017 19.22 14.2343 19.22 13.3299V8.36995C19.22 7.46556 19.5793 6.59821 20.2188 5.95871C20.8583 5.31921 21.7256 4.95995 22.63 4.95995C23.5344 4.95995 24.4017 5.31921 25.0412 5.95871C25.6807 6.59821 26.04 7.46556 26.04 8.36995V13.3299Z" fill="#FFE153"/>
<path d="M2.78999 0C2.2968 0.000342142 1.8239 0.196416 1.47515 0.545159C1.12641 0.893903 0.930335 1.3668 0.929993 1.86V29.1413C0.929993 29.6346 1.12596 30.1077 1.47477 30.4565C1.82359 30.8053 2.29669 31.0013 2.78999 31.0013C3.2833 31.0013 3.75639 30.8053 4.10521 30.4565C4.45403 30.1077 4.64999 29.6346 4.64999 29.1413V1.86C4.64999 1.3667 4.45403 0.893599 4.10521 0.544781C3.75639 0.195964 3.2833 0 2.78999 0Z" fill="#FFE153"/>
</g>
<defs>
<clipPath id="clip0">
<rect width="31" height="31" fill="white"/>
</clipPath>
</defs>
</svg>
