<svg width="32" height="32" viewBox="0 0 32 32" fill="none" xmlns="http://www.w3.org/2000/svg">
<g clip-path="url(#clip0)">
<path d="M20.7333 10.276C20.9848 10.5189 21.3216 10.6533 21.6712 10.6503C22.0208 10.6472 22.3552 10.507 22.6024 10.2598C22.8496 10.0126 22.9898 9.67816 22.9929 9.32856C22.9959 8.97897 22.8615 8.64216 22.6186 8.39069C22.1813 7.95336 22.304 7.40669 22.9226 5.87203C23.5506 4.31469 24.412 2.18136 22.6186 0.390694C22.4956 0.263347 22.3485 0.16177 22.1858 0.0918917C22.0232 0.022013 21.8482 -0.0147687 21.6712 -0.0163071C21.4941 -0.0178455 21.3185 0.0158901 21.1547 0.0829313C20.9908 0.149972 20.842 0.248977 20.7168 0.374167C20.5916 0.499357 20.4926 0.648226 20.4255 0.812088C20.3585 0.97595 20.3248 1.15152 20.3263 1.32856C20.3278 1.5056 20.3646 1.68056 20.4345 1.84323C20.5044 2.0059 20.6059 2.15303 20.7333 2.27603C21.2026 2.74536 21.0813 3.30803 20.4493 4.87469C19.8293 6.41469 18.9786 8.52136 20.7333 10.276Z" fill="#C8F4FC"/>
<path d="M13.0427 10.276C13.1664 10.4001 13.3135 10.4987 13.4754 10.566C13.6372 10.6333 13.8108 10.6681 13.9861 10.6683C14.1614 10.6686 14.3351 10.6343 14.4971 10.5674C14.6592 10.5006 14.8065 10.4024 14.9307 10.2786C15.0548 10.1549 15.1533 10.0078 15.2207 9.84594C15.288 9.68406 15.3228 9.51051 15.323 9.33519C15.3233 9.15988 15.289 8.98623 15.2221 8.82416C15.1552 8.6621 15.0571 8.51479 14.9333 8.39064C14.496 7.95331 14.6173 7.40664 15.236 5.87198C15.8667 4.31464 16.72 2.18131 14.9333 0.390643C14.8095 0.2665 14.6625 0.167956 14.5006 0.100636C14.3387 0.0333164 14.1652 -0.00146003 13.9899 -0.00170765C13.8146 -0.00195528 13.6409 0.0323308 13.4788 0.0991929C13.3168 0.166055 13.1695 0.264184 13.0453 0.387977C12.7946 0.637987 12.6535 0.977356 12.653 1.33142C12.6527 1.50674 12.687 1.68039 12.7539 1.84246C12.8207 2.00452 12.9189 2.15183 13.0427 2.27598C13.512 2.74531 13.3893 3.30798 12.7573 4.87464C12.1333 6.41464 11.2867 8.52131 13.0427 10.276Z" fill="#C8F4FC"/>
<path d="M28.3694 10.276C28.4924 10.4033 28.6395 10.5049 28.8022 10.5748C28.9648 10.6447 29.1398 10.6814 29.3168 10.683C29.4939 10.6845 29.6695 10.6508 29.8333 10.5837C29.9972 10.5167 30.146 10.4177 30.2712 10.2925C30.3964 10.1673 30.4954 10.0184 30.5625 9.85458C30.6295 9.69072 30.6632 9.51515 30.6617 9.33811C30.6602 9.16107 30.6234 8.98611 30.5535 8.82343C30.4836 8.66076 30.3821 8.51364 30.2547 8.39064C29.8174 7.95331 29.94 7.40664 30.5587 5.87197C31.1867 4.31464 32.048 2.18131 30.2547 0.39064C30.0032 0.147762 29.6664 0.0133699 29.3168 0.0164078C28.9672 0.0194457 28.6328 0.159671 28.3856 0.406882C28.1384 0.654093 27.9982 0.988509 27.9951 1.33811C27.9921 1.6877 28.1265 2.0245 28.3694 2.27597C28.8387 2.74531 28.7174 3.30797 28.0854 4.87464C27.4667 6.41464 26.6147 8.52131 28.3694 10.276Z" fill="#C8F4FC"/>
<path d="M15.3333 13.3227H13.3333C12.2288 13.3227 11.3333 14.2181 11.3333 15.3227V29.9893C11.3333 31.0939 12.2288 31.9893 13.3333 31.9893H15.3333C16.4379 31.9893 17.3333 31.0939 17.3333 29.9893V15.3227C17.3333 14.2181 16.4379 13.3227 15.3333 13.3227Z" fill="#C8F4FC"/>
<path d="M22.6667 13.3227H20.6667C19.5621 13.3227 18.6667 14.2181 18.6667 15.3227V29.9893C18.6667 31.0939 19.5621 31.9893 20.6667 31.9893H22.6667C23.7712 31.9893 24.6667 31.0939 24.6667 29.9893V15.3227C24.6667 14.2181 23.7712 13.3227 22.6667 13.3227Z" fill="#C8F4FC"/>
<path d="M30 13.3227H28C26.8954 13.3227 26 14.2181 26 15.3227V29.9893C26 31.0939 26.8954 31.9893 28 31.9893H30C31.1046 31.9893 32 31.0939 32 29.9893V15.3227C32 14.2181 31.1046 13.3227 30 13.3227Z" fill="#C8F4FC"/>
<path d="M7.33333 13.3227L2 13.3333C1.46957 13.3333 0.960859 13.544 0.585786 13.9191C0.210714 14.2942 0 14.8029 0 15.3333L0 30C0 30.5304 0.210714 31.0391 0.585786 31.4142C0.960859 31.7893 1.46957 32 2 32L7.33333 31.9893C7.86377 31.9893 8.37247 31.7786 8.74755 31.4035C9.12262 31.0285 9.33333 30.5198 9.33333 29.9893V15.3227C9.33333 14.7922 9.12262 14.2835 8.74755 13.9084C8.37247 13.5334 7.86377 13.3227 7.33333 13.3227ZM4.66667 24.6667C4.40296 24.6667 4.14517 24.5885 3.92591 24.442C3.70664 24.2954 3.53574 24.0872 3.43483 23.8436C3.33391 23.5999 3.30751 23.3318 3.35895 23.0732C3.4104 22.8146 3.53739 22.577 3.72386 22.3905C3.91033 22.204 4.1479 22.0771 4.40655 22.0256C4.66519 21.9742 4.93328 22.0006 5.17691 22.1015C5.42055 22.2024 5.62878 22.3733 5.77529 22.5926C5.9218 22.8118 6 23.0696 6 23.3333C6 23.6869 5.85952 24.0261 5.60948 24.2761C5.35943 24.5262 5.02029 24.6667 4.66667 24.6667ZM4.66667 19.3333C4.40296 19.3333 4.14517 19.2551 3.92591 19.1086C3.70664 18.9621 3.53574 18.7539 3.43483 18.5102C3.33391 18.2666 3.30751 17.9985 3.35895 17.7399C3.4104 17.4812 3.53739 17.2437 3.72386 17.0572C3.91033 16.8707 4.1479 16.7437 4.40655 16.6923C4.66519 16.6408 4.93328 16.6672 5.17691 16.7682C5.42055 16.8691 5.62878 17.04 5.77529 17.2592C5.9218 17.4785 6 17.7363 6 18C6 18.3536 5.85952 18.6928 5.60948 18.9428C5.35943 19.1929 5.02029 19.3333 4.66667 19.3333Z" fill="#C8F4FC"/>
</g>
<defs>
<clipPath id="clip0">
<rect width="32" height="32" fill="white"/>
</clipPath>
</defs>
</svg>
