<svg width="30" height="33" viewBox="0 0 30 33" fill="none" xmlns="http://www.w3.org/2000/svg">
<path d="M28.0378 13.5554C27.6339 12.9291 27.3016 12.2594 27.0472 11.559C27.0472 4.32536 20.3633 0.00113714 13.8967 0.00113714C12.0696 -0.0223793 10.2563 0.319065 8.563 1.00543C6.86975 1.6918 5.33075 2.70926 4.03632 3.99809C2.7419 5.28693 1.71813 6.82117 1.0251 8.51078C0.332078 10.2004 -0.0162444 12.0113 0.000581765 13.8373C0.000581765 18.8311 1.70664 22.384 5.21645 24.6774C5.26412 24.7091 5.30325 24.752 5.33037 24.8023C5.35748 24.8527 5.37176 24.909 5.37192 24.9662V32.3125C5.37192 32.4949 5.4444 32.6697 5.57341 32.7986C5.70243 32.9276 5.8774 33 6.05985 33H19.8184C20.0009 33 20.1758 32.9276 20.3049 32.7986C20.4339 32.6697 20.5063 32.4949 20.5063 32.3125V28.5589C20.5056 28.4689 20.5405 28.3823 20.6034 28.3179C20.6662 28.2536 20.752 28.2166 20.8421 28.2152C23.0819 28.1657 24.5459 27.8769 25.5544 26.8691C26.6289 25.7952 26.8752 22.7085 26.9302 20.9815C26.9327 20.8917 26.9705 20.8065 27.0354 20.7442C27.1002 20.6819 27.187 20.6477 27.2769 20.6488C27.6333 20.6488 28.0295 20.6488 28.3776 20.6337C29.8608 20.5677 29.9447 19.3962 29.9929 18.7087C30.0988 17.1729 29.0036 15.2521 28.0378 13.5554ZM18.4068 17.3737C17.8633 18.0302 17.1676 18.5443 16.3803 18.8714C15.5929 19.1985 14.7376 19.3286 13.8885 19.2505C13.4256 19.1604 12.9863 18.976 12.5979 18.7087C12.4557 18.6118 12.3551 18.4651 12.3159 18.2976C12.2767 18.1301 12.3017 17.954 12.386 17.804C13.3115 15.9036 14.7502 14.2996 16.5398 13.1732C16.7321 13.0771 16.8783 12.9086 16.9463 12.7048C17.0143 12.5009 16.9984 12.2785 16.9023 12.0863C16.8061 11.8941 16.6375 11.748 16.4336 11.68C16.2296 11.6121 16.007 11.6279 15.8147 11.724C12.5126 13.3739 10.0897 18.134 8.93539 21.6401C8.90718 21.7446 8.85829 21.8424 8.79162 21.9277C8.72495 22.013 8.64185 22.0841 8.54723 22.1367C8.45261 22.1894 8.34838 22.2225 8.24072 22.2343C8.13305 22.246 8.02413 22.236 7.92038 22.2049C7.81664 22.1739 7.72018 22.1223 7.6367 22.0534C7.55322 21.9844 7.48442 21.8995 7.43437 21.8035C7.38431 21.7075 7.35401 21.6025 7.34526 21.4946C7.33651 21.3867 7.34949 21.2782 7.38343 21.1754C7.96623 19.3777 8.732 17.6444 9.66872 16.0028C9.73852 15.8817 9.76972 15.7422 9.75817 15.6029C9.74661 15.4637 9.69286 15.3312 9.60406 15.2232C9.05027 14.5906 8.74048 13.7813 8.73039 12.9408C8.77949 12.2128 9.00776 11.5082 9.39492 10.8896C9.78207 10.271 10.3161 9.75753 10.9496 9.39481C12.0748 8.70258 13.3132 8.21387 14.608 7.95111C16.0918 7.66556 17.4966 7.0644 18.7274 6.18842C18.8249 6.11642 18.9371 6.06678 19.056 6.04301C19.1749 6.01925 19.2976 6.02195 19.4153 6.05093C19.5328 6.08025 19.6422 6.13565 19.7353 6.21302C19.8284 6.29038 19.9029 6.38771 19.9533 6.49779C21.4639 9.78942 20.3509 15.325 18.4054 17.3737H18.4068Z" fill="#CFF9AF"/>
</svg>
