<svg width="40" height="32" viewBox="0 0 40 32" fill="none" xmlns="http://www.w3.org/2000/svg">
<path d="M36.5219 20.2174C36.2459 20.2174 35.9728 20.2582 35.7179 20.3374C35.4629 20.4166 35.2315 20.5328 35.0365 20.6791L32.2069 22.8C31.6909 23.1871 31.0256 23.4426 30.3053 23.5303C29.5848 23.6181 28.8459 23.5338 28.1931 23.2891L21.1009 20.6309C20.3771 20.3586 19.5784 20.217 18.7687 20.2174H3.47827C2.55577 20.2174 1.67106 20.4922 1.01876 20.9815C0.366459 21.4707 0 22.1342 0 22.8261C0 23.518 0.366459 24.1815 1.01876 24.6707C1.67106 25.1599 2.55577 25.4348 3.47827 25.4348H36.5219C37.4443 25.4348 38.3291 25.1599 38.9813 24.6707C39.6336 24.1815 40 23.518 40 22.8261C40 22.1342 39.6336 21.4707 38.9813 20.9815C38.3291 20.4922 37.4443 20.2174 36.5219 20.2174Z" fill="#FFE153"/>
<path d="M4.34784 27.3912C4.11723 27.3912 3.89603 27.46 3.73296 27.5824C3.5699 27.7045 3.47827 27.8704 3.47827 28.0435V28.6957C3.47827 29.3875 3.84472 30.0509 4.49704 30.5403C5.14934 31.0296 6.03406 31.3043 6.95654 31.3043H33.0435C33.9659 31.3043 34.8507 31.0296 35.5029 30.5403C36.1552 30.0509 36.5219 29.3875 36.5219 28.6957V28.0435C36.5219 27.8704 36.4301 27.7045 36.2669 27.5824C36.104 27.46 35.8829 27.3912 35.6523 27.3912H4.34784Z" fill="#FFE153"/>
<path d="M3.47827 13.6956C3.47827 13.6956 0 14.2174 0 15.6522C0 17.0869 1.56522 17.6087 3.47827 17.6087C4.16045 17.612 4.83496 17.5005 5.45219 17.2826C5.6336 17.215 5.84075 17.1971 6.03792 17.2318C6.23509 17.2666 6.40989 17.3519 6.53219 17.473C6.98155 17.9298 7.57053 18.2989 8.24963 18.5495C8.92875 18.8001 9.67811 18.9247 10.4348 18.913C11.215 18.9717 12.0017 18.8672 12.7077 18.6112C13.4137 18.3552 14.0115 17.9577 14.4348 17.4626C14.472 17.417 14.5237 17.379 14.5852 17.352C14.6467 17.325 14.7161 17.3098 14.7873 17.3077C14.8586 17.3056 14.9294 17.3168 14.9935 17.3402C15.0576 17.3635 15.113 17.3984 15.1548 17.4417C15.7611 17.9461 16.5123 18.3407 17.3517 18.5955C18.191 18.8504 19.0966 18.959 20 18.913C20.9035 18.9591 21.8091 18.8506 22.6484 18.5957C23.4878 18.3408 24.239 17.9462 24.8452 17.4417C24.8875 17.3987 24.9431 17.3641 25.0073 17.3409C25.0715 17.3178 25.1423 17.3067 25.2135 17.3088C25.2846 17.3109 25.3541 17.3259 25.4157 17.3527C25.4773 17.3795 25.5293 17.4173 25.567 17.4626C25.9899 17.9577 26.5873 18.3552 27.2931 18.6113C27.9987 18.8673 28.7851 18.9717 29.5653 18.913C30.3211 18.9254 31.0699 18.8015 31.7485 18.5518C32.4275 18.3022 33.0163 17.934 33.4661 17.4782C33.5885 17.3568 33.7635 17.2713 33.9611 17.2365C34.1587 17.2018 34.3661 17.2199 34.5477 17.2878C35.1651 17.5059 35.8395 17.6173 36.5219 17.6139C38.4435 17.6139 40 17.0922 40 15.6574C40 14.2226 36.5219 13.7009 36.5219 13.7009L3.47827 13.6956Z" fill="#FFE153"/>
<path d="M35.6277 11.7391C35.7459 11.7393 35.8629 11.7213 35.9717 11.6863C36.0803 11.6514 36.1784 11.6002 36.2597 11.5358C36.3411 11.4715 36.4043 11.3954 36.4451 11.3121C36.4859 11.2289 36.5037 11.1403 36.4973 11.0517C36.0189 4.56523 28.8155 0 19.9999 0C11.1842 0 3.98074 4.56523 3.50421 11.0504C3.49757 11.1391 3.51517 11.2278 3.55589 11.3113C3.59661 11.3946 3.65959 11.4709 3.74101 11.5354C3.82245 11.5999 3.92055 11.6512 4.02935 11.6862C4.13815 11.7213 4.25535 11.7393 4.37378 11.7391H35.6277ZM11.3042 7.82608C10.9602 7.82608 10.624 7.7496 10.338 7.60627C10.052 7.46293 9.82909 7.25923 9.69746 7.02088C9.56583 6.78256 9.53138 6.52029 9.5985 6.26728C9.66559 6.01427 9.83125 5.78184 10.0744 5.59941C10.3177 5.41701 10.6276 5.29277 10.9649 5.24245C11.3023 5.19213 11.652 5.21795 11.9698 5.31667C12.2875 5.41541 12.5591 5.58259 12.7502 5.79709C12.9413 6.01157 13.0433 6.26376 13.0433 6.52173C13.0433 6.86768 12.8601 7.19944 12.534 7.44405C12.2078 7.68867 11.7655 7.82608 11.3042 7.82608ZM15.652 5.21739C15.3081 5.21739 14.9718 5.14088 14.6858 4.99757C14.3998 4.85424 14.1769 4.65053 14.0453 4.41219C13.9136 4.17387 13.8792 3.9116 13.9463 3.65859C14.0134 3.40555 14.1791 3.17315 14.4223 2.99072C14.6655 2.80832 14.9754 2.68408 15.3127 2.63376C15.6501 2.58343 15.9998 2.60926 16.3176 2.70797C16.6354 2.80669 16.907 2.97389 17.0981 3.1884C17.2892 3.40288 17.3912 3.65507 17.3912 3.91304C17.3912 4.25899 17.2079 4.59075 16.8818 4.83536C16.5556 5.07997 16.1133 5.21739 15.652 5.21739ZM19.9999 7.82608C19.6559 7.82608 19.3196 7.7496 19.0336 7.60627C18.7476 7.46293 18.5247 7.25923 18.3931 7.02088C18.2615 6.78256 18.227 6.52029 18.2942 6.26728C18.3612 6.01427 18.5269 5.78184 18.7701 5.59941C19.0133 5.41701 19.3232 5.29277 19.6606 5.24245C19.9979 5.19213 20.3476 5.21795 20.6654 5.31667C20.9832 5.41541 21.2548 5.58259 21.4459 5.79709C21.637 6.01157 21.739 6.26376 21.739 6.52173C21.739 6.86768 21.5558 7.19944 21.2296 7.44405C20.9035 7.68867 20.4611 7.82608 19.9999 7.82608ZM24.3477 5.21739C24.0037 5.21739 23.6675 5.14088 23.3815 4.99757C23.0955 4.85424 22.8726 4.65053 22.7409 4.41219C22.6093 4.17387 22.5749 3.9116 22.642 3.65859C22.7091 3.40555 22.8747 3.17315 23.1179 2.99072C23.3612 2.80832 23.671 2.68408 24.0084 2.63376C24.3458 2.58343 24.6954 2.60926 25.0132 2.70797C25.331 2.80669 25.6026 2.97389 25.7937 3.1884C25.9848 3.40288 26.0868 3.65507 26.0868 3.91304C26.0868 4.25899 25.9036 4.59075 25.5774 4.83536C25.2513 5.07997 24.8089 5.21739 24.3477 5.21739ZM28.6955 7.82608C28.3515 7.82608 28.0152 7.7496 27.7293 7.60627C27.4432 7.46293 27.2205 7.25923 27.0888 7.02088C26.9571 6.78256 26.9227 6.52029 26.9899 6.26728C27.0568 6.01427 27.2227 5.78184 27.4659 5.59941C27.7091 5.41701 28.0189 5.29277 28.3563 5.24245C28.6936 5.19213 29.0432 5.21795 29.3611 5.31667C29.6789 5.41541 29.9504 5.58259 30.1416 5.79709C30.3325 6.01157 30.4347 6.26376 30.4347 6.52173C30.4347 6.86768 30.2515 7.19944 29.9253 7.44405C29.5992 7.68867 29.1568 7.82608 28.6955 7.82608Z" fill="#FFE153"/>
</svg>
