<svg width="36" height="36" viewBox="0 0 36 36" fill="none" xmlns="http://www.w3.org/2000/svg">
<g clip-path="url(#clip0)">
<path d="M7.5 5.25H13.5C13.6989 5.25 13.8897 5.17098 14.0303 5.03033C14.171 4.88968 14.25 4.69891 14.25 4.5V2.25C14.25 1.65326 14.0129 1.08097 13.591 0.65901C13.169 0.237053 12.5967 0 12 0L9 0C8.40326 0 7.83097 0.237053 7.40901 0.65901C6.98705 1.08097 6.75 1.65326 6.75 2.25V4.5C6.75 4.69891 6.82902 4.88968 6.96967 5.03033C7.11032 5.17098 7.30109 5.25 7.5 5.25Z" fill="#CFF9AF"/>
<path d="M1.743 25.875H11.2785C11.3409 25.8746 11.4022 25.8586 11.4568 25.8286C11.5115 25.7986 11.5579 25.7555 11.5918 25.7032C11.6257 25.6508 11.6461 25.5909 11.6511 25.5287C11.6561 25.4665 11.6456 25.4041 11.6205 25.347C11.4429 24.9532 11.3525 24.5256 11.3554 24.0936C11.3584 23.6616 11.4545 23.2353 11.6374 22.8439C11.8203 22.4525 12.0856 22.1053 12.415 21.8258C12.7445 21.5464 13.1305 21.3415 13.5465 21.225L16.0965 20.508C16.2471 20.4657 16.3819 20.3799 16.484 20.2615C16.5862 20.1431 16.6512 19.9972 16.671 19.842C16.6847 19.7358 16.6755 19.6278 16.644 19.5254C16.6125 19.423 16.5595 19.3286 16.4884 19.2484C16.4173 19.1683 16.3299 19.1043 16.2321 19.0607C16.1342 19.0172 16.0281 18.9951 15.921 18.996H1.1625C1.06025 18.996 0.959061 19.0168 0.865166 19.0573C0.771271 19.0978 0.68665 19.1571 0.616502 19.2315C0.417133 19.4349 0.260009 19.6757 0.154197 19.9401C0.0483842 20.2045 -0.00402207 20.4872 1.70185e-06 20.772V24.1335C1.61697e-06 24.3623 0.0450965 24.5889 0.132709 24.8003C0.220321 25.0117 0.348733 25.2037 0.510605 25.3655C0.672478 25.5272 0.864636 25.6554 1.0761 25.7429C1.28756 25.8303 1.51418 25.8752 1.743 25.875Z" fill="#CFF9AF"/>
<path d="M12.9105 35.316C11.9546 34.6538 11.2669 33.6716 10.9718 32.5468C10.6766 31.422 10.7934 30.2288 11.301 29.1825C11.3507 29.0686 11.3713 28.9442 11.361 28.8204C11.3507 28.6966 11.3098 28.5772 11.242 28.4731C11.1742 28.369 11.0816 28.2834 10.9725 28.2239C10.8634 28.1645 10.7412 28.1331 10.617 28.1325H1.18498C1.08453 28.1325 0.985097 28.1527 0.892594 28.1919C0.80009 28.231 0.716396 28.2884 0.646481 28.3605C0.439548 28.5648 0.275708 28.8085 0.164659 29.0772C0.0536109 29.346 -0.00238727 29.6342 -1.94829e-05 29.925V32.25C-1.94829e-05 32.7425 0.0969771 33.2301 0.285432 33.6851C0.473887 34.14 0.75011 34.5534 1.09833 34.9017C1.44655 35.2499 1.85995 35.5261 2.31492 35.7146C2.76989 35.903 3.25752 36 3.74998 36H12.6975C12.7775 36.0001 12.8556 35.9746 12.9201 35.9272C12.9846 35.8798 13.0322 35.813 13.0561 35.7365C13.0799 35.6601 13.0786 35.578 13.0524 35.5023C13.0262 35.4267 12.9765 35.3614 12.9105 35.316Z" fill="#CFF9AF"/>
<path d="M1.13699 16.746H17.733C17.8641 16.746 17.9929 16.7117 18.1066 16.6464C18.2203 16.5812 18.3149 16.4872 18.381 16.374C19.8465 13.8675 20.1225 13.2615 20.5155 12.7575C20.5924 12.6588 20.6433 12.5425 20.6638 12.4191C20.6842 12.2957 20.6734 12.1692 20.6325 12.051C20.1735 10.7232 19.3123 9.57138 18.1684 8.75574C17.0245 7.94011 15.6549 7.50118 14.25 7.5H6.74999C4.95978 7.5 3.24289 8.21116 1.97702 9.47703C0.711149 10.7429 -9.44932e-06 12.4598 -9.44932e-06 14.25V15C-0.00823218 15.5563 0.199894 16.0941 0.58049 16.5C0.650915 16.5776 0.736823 16.6396 0.832674 16.682C0.928525 16.7243 1.03219 16.7462 1.13699 16.746Z" fill="#CFF9AF"/>
<path d="M35.6025 29.25L32.481 23.811C32.3825 23.6401 32.2513 23.4903 32.0949 23.3701C31.9385 23.2499 31.76 23.1617 31.5695 23.1105C31.3791 23.0594 31.1804 23.0462 30.9848 23.0718C30.7892 23.0974 30.6006 23.1613 30.4297 23.2597C30.2589 23.3582 30.1091 23.4894 29.9889 23.6458C29.8687 23.8022 29.7805 23.9807 29.7293 24.1712C29.6781 24.3617 29.6649 24.5604 29.6905 24.7559C29.7161 24.9515 29.78 25.1401 29.8785 25.311L32.3565 29.6265C32.422 29.7406 32.4564 29.8699 32.4561 30.0015C32.4559 30.133 32.421 30.2622 32.355 30.376C32.2891 30.4898 32.1944 30.5843 32.0803 30.65C31.9663 30.7156 31.8371 30.7501 31.7055 30.75H29.8155C29.6166 30.75 29.4258 30.671 29.2852 30.5303C29.1445 30.3897 29.0655 30.1989 29.0655 30V29.25C29.0658 29.1015 29.0219 28.9562 28.9395 28.8326C28.8571 28.709 28.7399 28.6127 28.6027 28.5558C28.4655 28.4989 28.3145 28.4841 28.1688 28.5131C28.0232 28.5422 27.8894 28.6138 27.7845 28.719L24.7845 31.719C24.6439 31.8596 24.5649 32.0504 24.5649 32.2492C24.5649 32.4481 24.6439 32.6389 24.7845 32.7795L27.7845 35.7795C27.8893 35.8846 28.0229 35.9562 28.1684 35.9853C28.314 36.0144 28.4649 35.9997 28.602 35.943C28.7392 35.8863 28.8564 35.7902 28.9389 35.6668C29.0214 35.5435 29.0655 35.3984 29.0655 35.25V34.5C29.0655 34.3011 29.1445 34.1103 29.2852 33.9697C29.4258 33.829 29.6166 33.75 29.8155 33.75H33C33.5269 33.7505 34.0446 33.6123 34.501 33.3492C34.9575 33.0861 35.3366 32.7074 35.6003 32.2513C35.8639 31.7951 36.0028 31.2776 36.0029 30.7507C36.0031 30.2239 35.8644 29.7063 35.601 29.25H35.6025Z" fill="#CFF9AF"/>
<path d="M22.146 30.75H16.9845C16.8529 30.75 16.7235 30.7153 16.6095 30.6495C16.4955 30.5837 16.4008 30.489 16.335 30.375C16.2692 30.261 16.2345 30.1316 16.2345 30C16.2345 29.8683 16.2692 29.739 16.335 29.625L17.5065 27.594C17.6049 27.4227 17.7669 27.2972 17.9573 27.2447C18.1478 27.1922 18.3512 27.2169 18.5235 27.3135L19.2225 27.7065C19.3519 27.7792 19.5001 27.8119 19.6481 27.8003C19.7961 27.7888 19.9373 27.7336 20.054 27.6417C20.1706 27.5498 20.2573 27.4254 20.3032 27.2842C20.349 27.143 20.3519 26.9914 20.3115 26.8485L19.164 22.7655C19.1375 22.6705 19.0925 22.5816 19.0317 22.504C18.9708 22.4264 18.8952 22.3616 18.8092 22.3133C18.7233 22.2649 18.6286 22.234 18.5307 22.2223C18.4327 22.2106 18.3334 22.2183 18.2385 22.245L14.154 23.4C14.011 23.44 13.8831 23.5217 13.7865 23.6345C13.6899 23.7473 13.629 23.8863 13.6115 24.0338C13.594 24.1813 13.6206 24.3306 13.6881 24.463C13.7556 24.5953 13.8608 24.7046 13.9905 24.777L14.5995 25.119C14.6858 25.1676 14.7616 25.2329 14.8226 25.3109C14.8836 25.389 14.9285 25.4784 14.9547 25.574C14.9809 25.6695 14.9879 25.7693 14.9754 25.8676C14.9628 25.9658 14.9309 26.0606 14.8815 26.1465L13.0875 29.25C12.8241 29.7062 12.6855 30.2236 12.6856 30.7503C12.6856 31.2771 12.8244 31.7945 13.0879 32.2506C13.3513 32.7067 13.7302 33.0854 14.1865 33.3486C14.6428 33.6118 15.1603 33.7502 15.687 33.75H22.146C22.5438 33.75 22.9254 33.592 23.2067 33.3107C23.488 33.0294 23.646 32.6478 23.646 32.25C23.646 31.8522 23.488 31.4706 23.2067 31.1893C22.9254 30.908 22.5438 30.75 22.146 30.75Z" fill="#CFF9AF"/>
<path d="M25.0125 16.881L25.9365 18.4905C26.0341 18.6614 26.0606 18.8637 26.0104 19.054C25.9602 19.2442 25.8372 19.4071 25.668 19.5075L24.9675 19.9245C24.8401 20.0002 24.7381 20.112 24.6742 20.2456C24.6103 20.3793 24.5874 20.5289 24.6084 20.6755C24.6294 20.8222 24.6934 20.9594 24.7923 21.0697C24.8912 21.18 25.0205 21.2586 25.164 21.2955L29.2755 22.3455C29.4682 22.3946 29.6726 22.3652 29.8436 22.2636C30.0147 22.1621 30.1384 21.9967 30.1875 21.804L31.2375 17.6925C31.2737 17.549 31.2667 17.3979 31.2173 17.2584C31.1678 17.1188 31.0782 16.997 30.9597 16.9083C30.8411 16.8196 30.699 16.768 30.5512 16.7599C30.4034 16.7519 30.2565 16.7877 30.129 16.863L29.5395 17.2125C29.4537 17.2642 29.3584 17.2981 29.2592 17.3124C29.16 17.3266 29.059 17.3208 28.9621 17.2954C28.8652 17.2699 28.7744 17.2253 28.695 17.1642C28.6157 17.1031 28.5493 17.0267 28.5 16.9395L26.967 14.2575C26.7044 13.7996 26.3256 13.4191 25.8689 13.1544C25.4123 12.8898 24.8938 12.7502 24.366 12.75C23.8394 12.7508 23.3221 12.8898 22.866 13.153C22.4098 13.4162 22.0307 13.7944 21.7665 14.25L18.7245 19.5255C18.5256 19.8702 18.4718 20.2798 18.5748 20.6642C18.6779 21.0486 18.9295 21.3763 19.2742 21.5753C19.619 21.7742 20.0286 21.828 20.413 21.7249C20.7974 21.6218 21.1251 21.3702 21.324 21.0255L23.715 16.8795C23.7808 16.7655 23.8755 16.6708 23.9895 16.605C24.1035 16.5392 24.2328 16.5045 24.3645 16.5045C24.4961 16.5045 24.6255 16.5392 24.7395 16.605C24.8535 16.6708 24.9482 16.7655 25.014 16.8795L25.0125 16.881Z" fill="#CFF9AF"/>
</g>
<defs>
<clipPath id="clip0">
<rect width="36" height="36" fill="white"/>
</clipPath>
</defs>
</svg>
